<svg width="428" height="402" viewBox="0 0 428 402" fill="none" xmlns="http://www.w3.org/2000/svg">
<path d="M209.537 401.04C325.261 401.04 419.074 393.795 419.074 384.858C419.074 375.921 325.261 368.677 209.537 368.677C93.8128 368.677 0 375.921 0 384.858C0 393.795 93.8128 401.04 209.537 401.04Z" fill="#92E3A9"/>
<path opacity="0.5" d="M209.537 401.04C325.261 401.04 419.074 393.795 419.074 384.858C419.074 375.921 325.261 368.677 209.537 368.677C93.8128 368.677 0 375.921 0 384.858C0 393.795 93.8128 401.04 209.537 401.04Z" fill="white"/>
<path d="M377.496 47.3312H160.708C156.003 47.3312 152.188 51.0289 152.188 55.5903V165.132C152.188 169.693 156.003 173.391 160.708 173.391H377.496C382.201 173.391 386.016 169.693 386.016 165.132V55.5903C386.016 51.0289 382.201 47.3312 377.496 47.3312Z" fill="#263238"/>
<path d="M384.418 52.052H167.631C162.926 52.052 159.111 55.7497 159.111 60.3111V169.852C159.111 174.414 162.926 178.111 167.631 178.111H384.418C389.124 178.111 392.938 174.414 392.938 169.852V60.3111C392.938 55.7497 389.124 52.052 384.418 52.052Z" fill="white" stroke="#263238" stroke-miterlimit="10"/>
<path d="M180.981 141.46H371.207" stroke="#263238" stroke-miterlimit="10"/>
<path d="M187.171 67.3876C187.171 68.8158 186.734 70.2118 185.916 71.3992C185.097 72.5867 183.934 73.5122 182.573 74.0587C181.212 74.6052 179.714 74.7482 178.269 74.4696C176.824 74.191 175.497 73.5033 174.455 72.4934C173.413 71.4836 172.704 70.197 172.417 68.7963C172.129 67.3956 172.277 65.9438 172.84 64.6244C173.404 63.305 174.359 62.1773 175.584 61.3838C176.809 60.5904 178.249 60.1669 179.722 60.1669C180.7 60.1669 181.669 60.3537 182.573 60.7166C183.476 61.0794 184.298 61.6113 184.989 62.2818C185.681 62.9523 186.23 63.7483 186.604 64.6244C186.978 65.5004 187.171 66.4394 187.171 67.3876Z" fill="#92E3A9" stroke="#263238" stroke-miterlimit="10"/>
<path d="M174.792 61.9746L184.711 72.7335" stroke="#263238" stroke-miterlimit="10"/>
<path d="M185.385 62.0708L175.259 72.6374" stroke="#263238" stroke-miterlimit="10"/>
<path d="M355.854 167.545H316.854C315.756 167.546 314.668 167.337 313.653 166.931C312.638 166.524 311.716 165.927 310.939 165.174C310.163 164.421 309.547 163.527 309.127 162.543C308.707 161.559 308.492 160.504 308.493 159.44V159.44C308.493 158.375 308.709 157.321 309.13 156.338C309.55 155.355 310.166 154.461 310.942 153.708C311.719 152.956 312.64 152.359 313.655 151.951C314.669 151.544 315.756 151.334 316.854 151.334H355.854C358.07 151.337 360.196 152.192 361.763 153.711C363.331 155.231 364.212 157.291 364.215 159.44V159.44C364.215 161.589 363.334 163.651 361.766 165.171C360.198 166.691 358.071 167.545 355.854 167.545V167.545Z" fill="#92E3A9" stroke="#263238" stroke-miterlimit="10"/>
<path d="M317.251 159.718V156.334H318.134V159.69C318.134 161.007 318.759 161.613 319.86 161.613C320.96 161.613 321.605 161.016 321.605 159.69V156.334H322.448V159.718C322.448 160.387 322.174 161.027 321.687 161.5C321.2 161.972 320.539 162.238 319.85 162.238C319.16 162.238 318.499 161.972 318.012 161.5C317.525 161.027 317.251 160.387 317.251 159.718V159.718Z" fill="#263238"/>
<path d="M330.086 158.411C330.086 159.709 329.094 160.488 327.527 160.488H326.009V162.295H325.126V156.334H327.566C329.124 156.334 330.086 157.122 330.086 158.411ZM329.213 158.411C329.213 157.565 328.618 157.074 327.497 157.074H326.009V159.747H327.497C328.618 159.747 329.213 159.267 329.213 158.411Z" fill="#263238"/>
<path d="M332.258 156.334H334.847C335.271 156.301 335.698 156.353 336.101 156.488C336.503 156.623 336.873 156.837 337.186 157.117C337.499 157.397 337.748 157.737 337.919 158.115C338.09 158.493 338.178 158.902 338.178 159.315C338.178 159.727 338.09 160.136 337.919 160.514C337.748 160.892 337.499 161.232 337.186 161.512C336.873 161.792 336.503 162.006 336.101 162.141C335.698 162.276 335.271 162.328 334.847 162.295H332.258V156.334ZM334.787 161.555C335.108 161.584 335.433 161.547 335.739 161.448C336.045 161.348 336.326 161.188 336.565 160.977C336.803 160.766 336.994 160.51 337.124 160.223C337.255 159.937 337.322 159.628 337.322 159.315C337.322 159.002 337.255 158.692 337.124 158.406C336.994 158.119 336.803 157.863 336.565 157.652C336.326 157.441 336.045 157.281 335.739 157.181C335.433 157.082 335.108 157.045 334.787 157.074H333.131V161.555H334.787Z" fill="#263238"/>
<path d="M344.209 160.805H340.936L340.262 162.295H339.359L342.146 156.334H343.009L345.806 162.295H344.884L344.209 160.805ZM343.902 160.122L342.573 157.238L341.244 160.122H343.902Z" fill="#263238"/>
<path d="M348.504 157.074H346.411V156.334H351.489V157.074H349.387V162.295H348.514L348.504 157.074Z" fill="#263238"/>
<path d="M357.778 161.555V162.295H353.354V156.334H357.688V157.074H354.227V158.901H357.321V159.632H354.237V161.555H357.778Z" fill="#263238"/>
<g opacity="0.26">
<path d="M241.623 102.203L238.836 110.27H237.586L235.325 103.809L233.054 110.25H231.784L228.997 102.184H230.227L232.469 108.741L234.819 102.184H235.91L238.201 108.779L240.502 102.184L241.623 102.203Z" fill="#263238"/>
<path d="M250.262 106.751V110.27H249.121V106.885C249.121 105.683 248.506 105.097 247.425 105.097C247.151 105.079 246.875 105.121 246.619 105.218C246.363 105.316 246.132 105.466 245.943 105.66C245.753 105.854 245.61 106.085 245.524 106.339C245.437 106.592 245.409 106.861 245.442 107.126V110.27H244.251V101.713H245.392V105.03C245.659 104.712 246 104.46 246.385 104.293C246.771 104.126 247.192 104.049 247.614 104.068C247.981 104.034 248.351 104.081 248.696 104.206C249.042 104.33 249.354 104.529 249.608 104.787C249.863 105.045 250.054 105.356 250.168 105.696C250.281 106.036 250.313 106.397 250.262 106.751Z" fill="#263238"/>
<path d="M258.574 106.587V110.27H257.493V109.462C257.251 109.766 256.935 110.005 256.572 110.158C256.21 110.311 255.813 110.373 255.42 110.337C253.991 110.337 253.089 109.606 253.089 108.539C253.089 107.472 253.743 106.751 255.628 106.751H257.433V106.539C257.433 105.578 256.878 105.058 255.747 105.058C255.028 105.057 254.329 105.29 253.763 105.722L253.287 104.885C254.043 104.351 254.961 104.077 255.896 104.107C257.602 104.107 258.574 104.914 258.574 106.587ZM257.433 108.404V107.549H255.668C254.537 107.549 254.22 107.981 254.22 108.51C254.22 109.039 254.745 109.472 255.608 109.472C255.989 109.5 256.37 109.412 256.697 109.221C257.024 109.03 257.281 108.744 257.433 108.404V108.404Z" fill="#263238"/>
<path d="M265.427 109.914C265.032 110.206 264.545 110.355 264.049 110.337C263.781 110.366 263.51 110.336 263.255 110.25C263.001 110.164 262.77 110.023 262.58 109.838C262.389 109.653 262.244 109.429 262.155 109.183C262.066 108.936 262.035 108.674 262.065 108.414V105.059H260.994V104.155H262.105V102.847H263.245V104.184H265.05V105.087H263.196V108.404C263.176 108.538 263.187 108.674 263.229 108.802C263.271 108.931 263.342 109.048 263.437 109.146C263.533 109.244 263.65 109.32 263.78 109.368C263.91 109.416 264.049 109.435 264.187 109.424C264.511 109.431 264.826 109.329 265.08 109.135L265.427 109.914Z" fill="#263238"/>
<path d="M277.389 106.587V110.27H276.308V109.462C276.068 109.767 275.751 110.008 275.388 110.161C275.026 110.314 274.628 110.374 274.235 110.337C272.806 110.337 271.904 109.606 271.904 108.539C271.904 107.472 272.558 106.751 274.443 106.751H276.248V106.539C276.248 105.578 275.693 105.058 274.562 105.058C273.843 105.057 273.144 105.29 272.578 105.722L272.102 104.885C272.858 104.351 273.776 104.077 274.711 104.107C276.417 104.107 277.389 104.914 277.389 106.587ZM276.248 108.404V107.549H274.493C273.362 107.549 273.034 107.981 273.034 108.51C273.034 109.039 273.56 109.472 274.433 109.472C274.812 109.498 275.191 109.409 275.516 109.218C275.841 109.027 276.097 108.743 276.248 108.404V108.404Z" fill="#263238"/>
<path d="M284.094 104.107V105.174H283.836C283.558 105.157 283.279 105.201 283.021 105.301C282.762 105.401 282.53 105.555 282.34 105.753C282.15 105.951 282.008 106.187 281.924 106.444C281.839 106.701 281.815 106.974 281.852 107.241V110.279H280.711V104.174H281.802V105.193C282.042 104.823 282.384 104.526 282.788 104.334C283.193 104.142 283.645 104.063 284.094 104.107Z" fill="#263238"/>
<path d="M292.306 107.587H287.188C287.26 108.111 287.537 108.589 287.961 108.922C288.386 109.255 288.925 109.417 289.47 109.375C289.811 109.388 290.151 109.328 290.466 109.2C290.781 109.073 291.064 108.88 291.295 108.635L291.919 109.347C291.605 109.674 291.22 109.931 290.791 110.097C290.362 110.263 289.901 110.335 289.44 110.308C289 110.34 288.558 110.283 288.143 110.14C287.727 109.996 287.348 109.77 287.028 109.476C286.708 109.181 286.456 108.825 286.287 108.43C286.118 108.035 286.037 107.611 286.048 107.183C286.03 106.774 286.099 106.366 286.251 105.984C286.403 105.601 286.635 105.254 286.932 104.962C287.229 104.671 287.585 104.442 287.977 104.29C288.369 104.138 288.789 104.065 289.212 104.078C289.635 104.067 290.055 104.143 290.446 104.299C290.838 104.455 291.191 104.688 291.484 104.984C291.777 105.28 292.003 105.632 292.148 106.017C292.293 106.402 292.354 106.812 292.326 107.222C292.326 107.347 292.316 107.481 292.306 107.587ZM287.188 106.789H291.235C291.185 106.302 290.951 105.851 290.577 105.523C290.203 105.194 289.716 105.012 289.212 105.012C288.707 105.012 288.221 105.194 287.847 105.523C287.473 105.851 287.238 106.302 287.188 106.789V106.789Z" fill="#263238"/>
<path d="M305.072 104.164L302.017 110.895C301.461 112.183 300.737 112.587 299.765 112.587C299.172 112.602 298.594 112.4 298.148 112.019L298.634 111.193C298.937 111.479 299.342 111.641 299.765 111.644C300.321 111.644 300.658 111.404 300.975 110.683L301.174 110.26L298.386 104.164H299.577L301.779 109.049L303.961 104.164H305.072Z" fill="#263238"/>
<path d="M306.579 107.212C306.567 106.58 306.75 105.96 307.103 105.429C307.457 104.898 307.965 104.481 308.564 104.231C309.163 103.981 309.825 103.91 310.465 104.026C311.106 104.142 311.696 104.441 312.162 104.884C312.627 105.326 312.945 105.893 313.077 106.512C313.208 107.131 313.147 107.774 312.9 108.359C312.654 108.944 312.233 109.444 311.692 109.796C311.151 110.149 310.514 110.337 309.862 110.337C309.43 110.357 308.999 110.29 308.596 110.141C308.192 109.992 307.824 109.764 307.516 109.47C307.208 109.177 306.965 108.825 306.804 108.436C306.643 108.047 306.566 107.631 306.579 107.212V107.212ZM311.975 107.212C311.975 106.666 311.751 106.143 311.353 105.757C310.955 105.371 310.415 105.155 309.852 105.155C309.289 105.155 308.749 105.371 308.351 105.757C307.953 106.143 307.73 106.666 307.73 107.212C307.73 107.758 307.953 108.281 308.351 108.667C308.749 109.053 309.289 109.27 309.852 109.27C310.415 109.27 310.955 109.053 311.353 108.667C311.751 108.281 311.975 107.758 311.975 107.212Z" fill="#263238"/>
<path d="M321.784 104.164V110.27H320.703V109.308C320.451 109.623 320.125 109.874 319.752 110.042C319.379 110.209 318.971 110.287 318.56 110.27C318.192 110.307 317.82 110.263 317.471 110.142C317.122 110.02 316.806 109.825 316.546 109.569C316.286 109.313 316.089 109.004 315.969 108.664C315.849 108.324 315.809 107.963 315.853 107.606V104.097H316.993V107.481C316.993 108.683 317.608 109.279 318.689 109.279C318.965 109.3 319.242 109.261 319.5 109.165C319.758 109.069 319.99 108.918 320.18 108.724C320.371 108.529 320.513 108.296 320.599 108.041C320.684 107.786 320.709 107.516 320.673 107.251V104.097L321.784 104.164Z" fill="#263238"/>
<path d="M220.794 117.048H217.948V116.087H224.831V117.048H221.975V124.115H220.794V117.048Z" fill="#263238"/>
<path d="M233.133 120.596V124.115H231.992V120.731C231.992 119.529 231.377 118.942 230.296 118.942C230.022 118.925 229.746 118.966 229.49 119.064C229.234 119.161 229.003 119.312 228.813 119.506C228.624 119.699 228.481 119.931 228.394 120.184C228.308 120.437 228.28 120.706 228.312 120.971V124.115H227.172V115.558H228.312V118.875C228.582 118.558 228.924 118.306 229.311 118.139C229.698 117.972 230.121 117.895 230.544 117.914C230.907 117.887 231.271 117.94 231.61 118.068C231.949 118.196 232.253 118.396 232.502 118.653C232.75 118.911 232.936 119.219 233.045 119.555C233.154 119.891 233.184 120.247 233.133 120.596V120.596Z" fill="#263238"/>
<path d="M236.247 116.116C236.247 116.018 236.267 115.921 236.306 115.831C236.345 115.742 236.403 115.66 236.475 115.592C236.547 115.524 236.632 115.47 236.726 115.435C236.82 115.399 236.92 115.382 237.021 115.385C237.12 115.381 237.219 115.397 237.312 115.43C237.405 115.464 237.49 115.516 237.563 115.582C237.635 115.649 237.692 115.728 237.732 115.817C237.772 115.905 237.793 116 237.794 116.096C237.794 116.295 237.713 116.486 237.568 116.627C237.423 116.767 237.226 116.846 237.021 116.846C236.816 116.846 236.619 116.767 236.474 116.627C236.329 116.486 236.247 116.295 236.247 116.096V116.116ZM236.445 118.039H237.596V124.144H236.445V118.039Z" fill="#263238"/>
<path d="M246.939 120.596V124.115H245.799V120.731C245.799 119.529 245.184 118.942 244.103 118.942C243.828 118.925 243.553 118.966 243.297 119.064C243.04 119.161 242.809 119.312 242.62 119.505C242.431 119.699 242.288 119.931 242.201 120.184C242.114 120.437 242.087 120.706 242.119 120.971V124.115H240.979V118.01H242.079V118.971C242.35 118.645 242.698 118.388 243.093 118.22C243.489 118.053 243.92 117.981 244.351 118.01C244.704 117.985 245.058 118.036 245.389 118.159C245.72 118.282 246.019 118.473 246.266 118.719C246.512 118.965 246.7 119.261 246.817 119.585C246.933 119.909 246.975 120.254 246.939 120.596V120.596Z" fill="#263238"/>
<path d="M252.712 121.269L251.402 122.442V124.115H250.252V115.558H251.402V121.048L254.834 118.01H256.213L253.565 120.529L256.481 124.115H255.072L252.712 121.269Z" fill="#263238"/>
<path d="M258.494 116.116C258.486 115.966 258.525 115.817 258.605 115.689C258.685 115.561 258.803 115.459 258.943 115.396C259.084 115.333 259.24 115.313 259.393 115.337C259.546 115.362 259.687 115.43 259.799 115.533C259.911 115.636 259.989 115.77 260.022 115.916C260.056 116.062 260.043 116.215 259.986 116.354C259.928 116.494 259.829 116.613 259.701 116.697C259.574 116.782 259.423 116.827 259.268 116.827C259.168 116.832 259.068 116.818 258.975 116.784C258.881 116.751 258.795 116.699 258.723 116.633C258.651 116.566 258.593 116.486 258.554 116.397C258.514 116.308 258.494 116.212 258.494 116.116V116.116ZM258.693 118.038H259.833V124.144H258.693V118.038Z" fill="#263238"/>
<path d="M269.186 120.596V124.115H268.056V120.731C268.056 119.529 267.441 118.942 266.36 118.942C266.085 118.925 265.81 118.966 265.553 119.064C265.297 119.161 265.066 119.312 264.877 119.505C264.687 119.699 264.544 119.931 264.458 120.184C264.371 120.437 264.343 120.706 264.376 120.971V124.115H263.235V118.01H264.326V118.971C264.599 118.647 264.947 118.391 265.342 118.224C265.737 118.056 266.167 117.983 266.598 118.01C266.951 117.987 267.304 118.039 267.634 118.162C267.964 118.285 268.263 118.477 268.509 118.723C268.755 118.969 268.943 119.264 269.06 119.587C269.177 119.91 269.22 120.255 269.186 120.596V120.596Z" fill="#263238"/>
<path d="M278.569 118.009V123.288C278.569 125.442 277.438 126.422 275.296 126.422C274.219 126.449 273.166 126.109 272.32 125.461L272.866 124.615C273.557 125.136 274.41 125.414 275.286 125.403C276.774 125.403 277.458 124.74 277.458 123.355V122.875C277.178 123.189 276.828 123.438 276.435 123.605C276.042 123.771 275.615 123.85 275.187 123.836C274.772 123.859 274.356 123.8 273.965 123.661C273.575 123.523 273.217 123.309 272.915 123.032C272.613 122.755 272.372 122.422 272.207 122.052C272.043 121.681 271.958 121.283 271.958 120.879C271.958 120.476 272.043 120.078 272.207 119.707C272.372 119.337 272.613 119.003 272.915 118.727C273.217 118.45 273.575 118.236 273.965 118.098C274.356 117.959 274.772 117.9 275.187 117.923C275.625 117.899 276.064 117.974 276.468 118.141C276.872 118.307 277.231 118.562 277.518 118.884V117.923L278.569 118.009ZM277.448 120.894C277.472 120.473 277.365 120.055 277.141 119.693C276.917 119.332 276.586 119.044 276.191 118.867C275.796 118.69 275.356 118.632 274.926 118.701C274.497 118.769 274.099 118.961 273.784 119.252C273.468 119.542 273.25 119.917 273.157 120.329C273.064 120.741 273.101 121.171 273.263 121.562C273.425 121.953 273.704 122.289 274.065 122.524C274.426 122.76 274.851 122.885 275.286 122.884C275.566 122.909 275.849 122.875 276.115 122.786C276.38 122.697 276.624 122.554 276.828 122.367C277.033 122.179 277.194 121.952 277.301 121.7C277.408 121.448 277.458 121.176 277.448 120.903V120.894Z" fill="#263238"/>
<path d="M291.324 120.433V124.115H290.243V123.307C290.004 123.611 289.689 123.851 289.328 124.004C288.967 124.157 288.572 124.218 288.18 124.182C286.752 124.182 285.839 123.452 285.839 122.384C285.839 121.317 286.494 120.596 288.378 120.596H290.184V120.385C290.184 119.423 289.628 118.904 288.497 118.904C287.778 118.904 287.08 119.137 286.514 119.567L286.038 118.731C286.793 118.197 287.712 117.923 288.646 117.952C290.352 117.952 291.324 118.76 291.324 120.433ZM290.184 122.25V121.394H288.428C287.297 121.394 286.97 121.827 286.97 122.356C286.97 122.884 287.496 123.317 288.369 123.317C288.748 123.343 289.126 123.255 289.451 123.064C289.777 122.873 290.032 122.588 290.184 122.25V122.25Z" fill="#263238"/>
<path d="M301.173 121.058C301.196 121.471 301.129 121.885 300.977 122.272C300.825 122.659 300.591 123.011 300.29 123.305C299.989 123.599 299.628 123.83 299.231 123.981C298.833 124.132 298.407 124.2 297.98 124.182C297.548 124.202 297.117 124.119 296.726 123.939C296.336 123.76 295.996 123.49 295.738 123.154V124.115H294.637V115.558H295.827V118.933C296.091 118.616 296.427 118.364 296.81 118.197C297.192 118.03 297.61 117.952 298.029 117.971C298.449 117.959 298.867 118.031 299.257 118.182C299.646 118.333 300 118.561 300.295 118.85C300.59 119.14 300.82 119.486 300.971 119.865C301.123 120.245 301.191 120.651 301.173 121.058V121.058ZM300.013 121.058C299.992 120.656 299.849 120.269 299.603 119.945C299.358 119.621 299.019 119.373 298.63 119.234C298.241 119.094 297.818 119.068 297.414 119.159C297.009 119.25 296.641 119.454 296.355 119.745C296.069 120.037 295.878 120.403 295.804 120.799C295.731 121.195 295.779 121.603 295.942 121.973C296.105 122.343 296.377 122.658 296.723 122.88C297.07 123.102 297.475 123.22 297.89 123.221C298.181 123.228 298.469 123.177 298.738 123.069C299.006 122.962 299.248 122.801 299.448 122.597C299.648 122.393 299.802 122.151 299.899 121.885C299.997 121.62 300.035 121.338 300.013 121.058Z" fill="#263238"/>
<path d="M303.365 121.057C303.353 120.426 303.536 119.805 303.889 119.274C304.243 118.743 304.751 118.326 305.35 118.076C305.949 117.827 306.611 117.755 307.251 117.872C307.892 117.988 308.483 118.286 308.948 118.729C309.413 119.172 309.731 119.739 309.863 120.357C309.995 120.976 309.933 121.619 309.687 122.204C309.44 122.789 309.019 123.289 308.478 123.642C307.937 123.994 307.3 124.182 306.648 124.182C306.217 124.202 305.785 124.136 305.382 123.987C304.978 123.837 304.61 123.609 304.302 123.315C303.994 123.022 303.751 122.67 303.59 122.281C303.429 121.893 303.352 121.476 303.365 121.057ZM308.761 121.057C308.761 120.787 308.706 120.52 308.599 120.27C308.493 120.02 308.336 119.794 308.139 119.603C307.942 119.411 307.708 119.26 307.45 119.157C307.193 119.053 306.917 119 306.638 119C306.359 119 306.083 119.053 305.826 119.157C305.568 119.26 305.334 119.411 305.137 119.603C304.94 119.794 304.784 120.02 304.677 120.27C304.571 120.52 304.516 120.787 304.516 121.057C304.516 121.328 304.571 121.595 304.677 121.845C304.784 122.094 304.94 122.321 305.137 122.512C305.334 122.703 305.568 122.855 305.826 122.958C306.083 123.062 306.359 123.115 306.638 123.115C306.917 123.115 307.193 123.062 307.45 122.958C307.708 122.855 307.942 122.703 308.139 122.512C308.336 122.321 308.493 122.094 308.599 121.845C308.706 121.595 308.761 121.328 308.761 121.057V121.057Z" fill="#263238"/>
<path d="M318.57 118.01V124.115H317.489V123.153C317.238 123.468 316.912 123.72 316.539 123.887C316.166 124.054 315.757 124.132 315.347 124.115C314.979 124.152 314.606 124.108 314.258 123.987C313.909 123.866 313.593 123.67 313.333 123.414C313.073 123.158 312.875 122.849 312.755 122.509C312.635 122.17 312.596 121.808 312.639 121.452V117.942H313.78V121.327C313.78 122.528 314.395 123.125 315.476 123.125C315.751 123.146 316.028 123.107 316.286 123.01C316.544 122.914 316.777 122.763 316.967 122.569C317.157 122.375 317.3 122.141 317.385 121.886C317.471 121.632 317.496 121.361 317.46 121.096V117.942L318.57 118.01Z" fill="#263238"/>
<path d="M325.483 123.759C325.089 124.052 324.601 124.202 324.105 124.182C323.837 124.211 323.566 124.182 323.312 124.095C323.057 124.009 322.826 123.868 322.636 123.683C322.445 123.499 322.3 123.275 322.211 123.028C322.122 122.782 322.091 122.519 322.121 122.259V118.904H321.05V118H322.121V116.663H323.262V118H325.067V118.904H323.262V122.221C323.242 122.354 323.253 122.49 323.295 122.619C323.337 122.747 323.408 122.865 323.504 122.963C323.599 123.061 323.716 123.137 323.846 123.185C323.976 123.233 324.115 123.252 324.253 123.24C324.577 123.247 324.892 123.145 325.146 122.952L325.483 123.759Z" fill="#263238"/>
<path d="M331.583 118.231C331.583 117.49 330.948 116.981 329.877 116.981C329.474 116.958 329.071 117.028 328.701 117.187C328.332 117.346 328.007 117.589 327.755 117.894L326.882 117.298C327.253 116.86 327.726 116.513 328.262 116.288C328.799 116.062 329.383 115.963 329.966 116C331.672 116 332.783 116.779 332.783 118.058C332.783 119.981 330.681 120.106 330.681 121.615H329.49C329.49 119.759 331.583 119.509 331.583 118.231ZM329.322 123.5C329.318 123.351 329.36 123.204 329.442 123.078C329.525 122.952 329.644 122.853 329.785 122.793C329.926 122.733 330.082 122.716 330.234 122.743C330.385 122.769 330.525 122.839 330.635 122.943C330.745 123.047 330.821 123.181 330.852 123.327C330.884 123.473 330.87 123.625 330.812 123.763C330.754 123.901 330.655 124.019 330.527 124.102C330.4 124.186 330.249 124.23 330.095 124.23C329.99 124.235 329.885 124.217 329.787 124.179C329.689 124.141 329.601 124.084 329.527 124.01C329.454 123.936 329.398 123.849 329.363 123.752C329.327 123.656 329.313 123.553 329.322 123.452V123.5Z" fill="#263238"/>
</g>
<path d="M224.028 100.462V110.645" stroke="#263238" stroke-miterlimit="10"/>
<path d="M234.035 65.2435V73.3199H233.043L228.084 67.3011V73.3199H226.894V65.2435H227.886L232.845 71.2624V65.2435H234.035Z" fill="black"/>
<path d="M237.358 65.3493C237.358 65.1504 237.44 64.9596 237.585 64.819C237.73 64.6783 237.927 64.5993 238.132 64.5993C238.337 64.5993 238.534 64.6783 238.679 64.819C238.824 64.9596 238.905 65.1504 238.905 65.3493C238.907 65.4477 238.888 65.5453 238.849 65.6364C238.811 65.7274 238.754 65.81 238.681 65.8792C238.609 65.9483 238.523 66.0026 238.429 66.0387C238.334 66.0749 238.233 66.0922 238.132 66.0896C238.03 66.0936 237.928 66.0772 237.833 66.0416C237.738 66.0059 237.652 65.9517 237.579 65.8823C237.507 65.8128 237.45 65.7297 237.412 65.638C237.374 65.5463 237.355 65.448 237.358 65.3493V65.3493ZM237.557 67.2722H238.697V73.3872H237.557V67.2722Z" fill="black"/>
<path d="M241.484 70.2624C241.475 69.8411 241.556 69.4225 241.722 69.033C241.888 68.6435 242.135 68.2914 242.448 67.9989C242.761 67.7064 243.133 67.4797 243.541 67.3331C243.948 67.1866 244.383 67.1233 244.817 67.1472C245.327 67.1177 245.836 67.2239 246.289 67.4543C246.742 67.6848 247.121 68.0307 247.386 68.4549L246.523 68.9933C246.338 68.7173 246.083 68.4919 245.782 68.3387C245.482 68.1856 245.146 68.1097 244.807 68.1183C244.244 68.1548 243.717 68.3971 243.333 68.7961C242.948 69.195 242.733 69.7209 242.733 70.2672C242.733 70.8135 242.948 71.3394 243.333 71.7384C243.717 72.1374 244.244 72.3797 244.807 72.4161C245.146 72.4248 245.482 72.3489 245.782 72.1957C246.083 72.0425 246.338 71.8172 246.523 71.5412L247.386 72.07C247.121 72.4952 246.742 72.8425 246.29 73.0746C245.837 73.3066 245.328 73.4147 244.817 73.3872C244.382 73.4098 243.947 73.3452 243.54 73.1976C243.132 73.0499 242.76 72.8223 242.448 72.5291C242.135 72.2358 241.888 71.8831 241.722 71.4931C241.556 71.1031 241.475 70.6842 241.484 70.2624V70.2624Z" fill="black"/>
<path d="M252.424 70.474L251.115 71.647V73.32H249.974V64.7628H251.115V70.2529L254.556 67.205H255.935L253.277 69.7337L256.193 73.32H254.794L252.424 70.474Z" fill="black"/>
<path d="M264.396 69.8009V73.3199H263.255V69.9259C263.255 68.7241 262.63 68.1376 261.549 68.1376C261.274 68.1184 260.998 68.1586 260.741 68.2554C260.484 68.3521 260.252 68.503 260.062 68.697C259.872 68.891 259.729 69.1235 259.644 69.3776C259.558 69.6316 259.531 69.901 259.565 70.1663V73.3199H258.425V67.2049H259.516V68.1664C259.788 67.8418 260.136 67.5852 260.531 67.4179C260.926 67.2506 261.357 67.1776 261.787 67.2049C262.142 67.1793 262.499 67.2295 262.833 67.3518C263.166 67.4742 263.467 67.6659 263.716 67.9133C263.964 68.1607 264.154 68.4579 264.272 68.784C264.389 69.1102 264.431 69.4572 264.396 69.8009Z" fill="black"/>
<path d="M272.708 69.628V73.3201H271.617V72.5124C271.376 72.8146 271.061 73.0532 270.701 73.2062C270.34 73.3591 269.946 73.4214 269.553 73.3874C268.125 73.3874 267.223 72.647 267.223 71.5894C267.223 70.5318 267.877 69.801 269.752 69.801H271.567V69.5799C271.567 68.6184 271.002 68.1088 269.871 68.1088C269.152 68.1028 268.453 68.3333 267.887 68.7626L267.411 67.9358C268.162 67.3982 269.077 67.1206 270.01 67.1474C271.726 67.1474 272.708 67.955 272.708 69.628ZM271.567 71.4452V70.5991H269.801C268.671 70.5991 268.353 71.0221 268.353 71.5605C268.353 72.099 268.869 72.522 269.742 72.522C270.124 72.5497 270.505 72.4608 270.833 72.2676C271.16 72.0745 271.417 71.7869 271.567 71.4452V71.4452Z" fill="black"/>
<path d="M286.484 69.8011V73.3201H285.343V69.9261C285.343 68.7242 284.748 68.1377 283.717 68.1377C283.447 68.1249 283.178 68.1702 282.928 68.2705C282.679 68.3707 282.455 68.5234 282.274 68.7175C282.093 68.9115 281.958 69.1422 281.88 69.3927C281.802 69.6433 281.782 69.9076 281.822 70.1664V73.3201H280.682V69.9261C280.682 68.7242 280.087 68.1377 279.045 68.1377C278.004 68.1377 277.161 68.8396 277.161 70.1664V73.3201H275.99V67.2051H277.081V68.1185C277.334 67.7979 277.665 67.5425 278.043 67.3748C278.422 67.2071 278.838 67.1323 279.253 67.157C279.692 67.1264 280.13 67.2168 280.518 67.4175C280.906 67.6183 281.228 67.9213 281.445 68.2916C281.722 67.9224 282.089 67.6256 282.513 67.4276C282.937 67.2296 283.405 67.1366 283.875 67.157C284.236 67.1267 284.6 67.1752 284.938 67.2991C285.277 67.423 285.583 67.619 285.834 67.8728C286.084 68.1265 286.272 68.4315 286.385 68.7653C286.497 69.099 286.531 69.453 286.484 69.8011Z" fill="black"/>
<path d="M295.5 70.6279H290.382C290.452 71.1533 290.728 71.6325 291.153 71.9656C291.578 72.2987 292.119 72.4601 292.663 72.4162C293.005 72.4281 293.345 72.3681 293.66 72.2403C293.975 72.1125 294.258 71.9199 294.488 71.6759L295.113 72.397C294.648 72.8555 294.055 73.1734 293.407 73.3121C292.759 73.4508 292.084 73.4044 291.462 73.1785C290.841 72.9527 290.3 72.557 289.906 72.0394C289.512 71.5219 289.281 70.9046 289.242 70.2625C289.224 69.8529 289.293 69.4441 289.445 69.0615C289.597 68.6789 289.829 68.3307 290.125 68.0386C290.422 67.7464 290.778 67.5165 291.17 67.3632C291.562 67.2099 291.983 67.1364 292.405 67.1473C292.829 67.137 293.251 67.2125 293.643 67.3692C294.035 67.5258 294.388 67.76 294.682 68.0569C294.975 68.3538 295.201 68.7067 295.345 69.0932C295.49 69.4796 295.549 69.891 295.52 70.301C295.52 70.3875 295.51 70.5317 295.5 70.6279ZM290.382 69.8394H294.429C294.379 69.3527 294.144 68.9014 293.77 68.573C293.397 68.2447 292.91 68.0629 292.405 68.0629C291.901 68.0629 291.414 68.2447 291.041 68.573C290.667 68.9014 290.432 69.3527 290.382 69.8394Z" fill="black"/>
<path d="M416.522 68.349C422.861 42.8907 406.71 17.2712 380.448 11.1263C354.186 4.98138 327.757 20.638 321.418 46.0963C315.079 71.5546 331.23 97.174 357.493 103.319C383.755 109.464 410.183 93.8073 416.522 68.349Z" fill="#263238"/>
<path d="M419.428 63.277C423.654 38.4213 406.295 14.9505 380.654 10.8535C355.013 6.75648 330.801 23.5847 326.575 48.4404C322.349 73.2962 339.708 96.767 365.349 100.864C390.99 104.961 415.202 88.1327 419.428 63.277Z" fill="white" stroke="#263238" stroke-miterlimit="10"/>
<path d="M408.6 85.6367C404.228 90.5622 398.82 94.524 392.738 97.2563C386.657 99.9887 380.043 101.428 373.34 101.478C366.637 101.528 360.001 100.188 353.877 97.5467C347.752 94.9056 342.282 91.0251 337.832 86.1655C339.726 83.1657 342.692 80.4831 346.054 79.9351C347.409 79.7111 348.75 79.4158 350.071 79.0505C350.389 78.9736 350.696 78.8871 351.004 78.791C351.877 78.5314 352.739 78.2429 353.583 77.9256C354.009 77.7622 354.426 77.5987 354.842 77.416C355.259 77.2334 355.774 77.0218 356.241 76.8103C356.707 76.5988 357.153 76.368 357.599 76.1373C358.046 75.9065 358.492 75.6661 358.929 75.4162C359.365 75.1662 359.801 74.9066 360.228 74.6374C360.654 74.3681 360.932 74.1855 361.279 73.9451C361.403 73.8715 361.522 73.7913 361.636 73.7047C361.993 73.4547 362.34 73.1951 362.688 72.9355C363.094 72.6279 363.481 72.3202 363.868 71.9741C364.255 71.6279 364.622 71.3203 364.999 71.0126C365.723 70.3396 366.427 69.6281 367.091 68.8781L369.71 68.4454L370.107 68.3781L380.124 66.7148L383.387 66.1667L384.23 66.0321C385.331 68.407 387.652 69.9453 390.182 70.9549L390.509 71.0895C391.124 71.3299 391.749 71.5318 392.373 71.7145C395.686 72.6759 399.207 73.2432 402.084 75.0989C405.734 77.4256 407.668 81.4062 408.6 85.6367Z" fill="#92E3A9"/>
<path d="M367.3 68.0801C365.622 69.9554 363.377 71.2705 360.884 71.8383C358.392 72.4062 355.778 72.198 353.414 71.2433C353.21 71.9136 353.151 72.6176 353.241 73.311C353.332 74.0044 353.569 74.6721 353.94 75.2719C353.152 74.8655 352.49 74.2646 352.02 73.5301C351.55 72.7956 351.288 71.9536 351.262 71.0895C350.638 72.4109 350.249 73.8249 350.111 75.2719C345.42 76.1469 340.441 73.4932 338.11 69.4454C337.013 67.3684 336.42 65.0759 336.377 62.7429C336.334 60.4099 336.842 58.0983 337.862 55.9847L335.223 59.3402C334.37 57.3115 335.075 54.9751 336.215 53.1002C337.356 51.2254 338.963 49.6293 340.123 47.7544C343.198 42.7355 342.791 36.5051 343.763 30.7555C343.992 28.5873 344.818 26.5185 346.154 24.7655C347.592 23.1117 350.061 22.1214 352.105 22.9194C352.472 20.2177 355.983 18.9581 358.591 17.9294C362.906 16.2468 367.518 14.593 372.1 15.3718C379.45 16.6218 384.349 23.6309 391.382 26.025C395.022 27.2653 398.999 27.1884 402.718 28.1787C406.438 29.169 410.207 31.8035 410.445 35.534L406.477 33.5245C409.357 37.1256 411.038 41.4902 411.298 46.0392C411.559 50.5882 410.386 55.1064 407.935 58.9941L407.192 55.4462C407.608 57.1673 406.14 58.7441 404.712 59.8498C400.794 62.8785 395.875 65.1187 390.896 64.5611C389.428 64.3976 387.99 63.9938 386.522 63.763C382.25 63.1408 377.889 63.9769 374.183 66.1283C372.127 67.4017 369.739 68.0789 367.3 68.0801V68.0801Z" fill="#263238"/>
<path d="M369.045 59.9747C367.627 61.8977 365.335 67.6665 364.8 72.4739C364.264 77.2813 364.8 85.1654 366.04 85.1654C367.279 85.1654 369.402 74.8776 369.402 74.8776C369.402 74.8776 370.285 78.8197 372.377 80.0215C374.47 81.2234 378.209 89.2709 378.209 89.2709C378.209 89.2709 383.169 80.5311 383.863 77.6178C384.557 74.7046 384.756 73.3393 385.638 74.3584C387.211 76.7588 388.571 79.2837 389.705 81.906C390.588 83.9636 391.292 75.1757 390.052 70.3683C388.812 65.5609 385.986 62.3207 385.638 61.1189C385.291 59.917 383.337 58.7152 383.337 58.7152C376.474 51.7444 370.463 58.0902 369.045 59.9747Z" fill="white" stroke="#263238" stroke-linecap="round" stroke-linejoin="round"/>
<path d="M367.627 62.888C369.023 65.9796 370.09 69.2012 370.811 72.5027C371.694 77.1371 377.357 87.2518 378.24 89.2998C379.122 91.3477 381.781 82.7906 382.832 76.964C383.883 71.1374 382.594 57.0229 382.594 57.0229C377.645 63.3495 367.627 62.888 367.627 62.888Z" fill="white" stroke="#263238" stroke-linecap="round" stroke-linejoin="round"/>
<path d="M357.262 31.0533C356.381 33.1156 355.388 35.1311 354.287 37.0914C353.364 38.8317 352.095 40.6585 352.303 42.6969C352.511 44.7352 358.353 56.1575 360.833 58.7632C363.312 61.3688 371.852 67.8683 375.542 65.4358C383.705 60.0515 382.971 44.1006 382.098 41.495C381.225 38.8894 380.114 39.572 380.114 39.572C379.658 39.8509 378.478 38.9278 378.041 38.7548C375.522 37.726 372.765 37.6587 370.216 36.6492C367.485 35.6115 365.031 33.9915 363.035 31.9091C361.448 30.1784 360.059 28.1881 357.609 27.5343C358.363 27.7362 357.907 29.4188 357.262 31.0533Z" fill="white" stroke="#263238" stroke-linecap="round" stroke-linejoin="round"/>
<path d="M358.908 44.3411C359.171 43.9126 359.523 43.5415 359.94 43.251C360.358 42.9605 360.834 42.7569 361.337 42.6531C361.84 42.5492 362.359 42.5474 362.863 42.6476C363.367 42.7478 363.844 42.9479 364.264 43.2354" stroke="#263238" stroke-linecap="round" stroke-linejoin="round"/>
<path d="M374.183 39.101C369.511 37.6876 368.797 41.2163 368.797 41.2163" stroke="#263238" stroke-linecap="round" stroke-linejoin="round"/>
<path d="M364.453 47.4754C364.641 48.2542 364.502 48.9561 364.135 49.0427C363.768 49.1292 363.312 48.5619 363.144 47.7735C362.975 46.9851 363.094 46.2928 363.461 46.2063C363.828 46.1198 364.264 46.687 364.453 47.4754Z" fill="#263238"/>
<path d="M374.014 45.1584C374.203 45.9468 374.064 46.6487 373.697 46.7352C373.33 46.8217 372.874 46.2448 372.705 45.466C372.536 44.6872 372.655 43.9758 373.022 43.8988C373.389 43.8219 373.816 44.3988 374.014 45.1584Z" fill="#263238"/>
<path d="M368.837 43.4277C368.837 48.0813 372.021 51.0522 371.812 52.6964C371.808 52.7339 371.795 52.7698 371.773 52.8013C371.752 52.8329 371.723 52.859 371.689 52.8778C371.655 52.8965 371.617 52.9072 371.579 52.9091C371.54 52.911 371.501 52.904 371.465 52.8887C370.731 52.5137 369.859 51.9272 369.134 51.5618" stroke="#263238" stroke-linecap="round" stroke-linejoin="round"/>
<path d="M365.703 55.5423C366.401 56.3913 367.322 57.0434 368.368 57.4306C369.415 57.8178 370.549 57.9261 371.654 57.7441" stroke="#263238" stroke-linecap="round" stroke-linejoin="round"/>
<path d="M368.559 65.0802C368.559 65.0802 372.774 74.4931 376.266 73.6758C379.757 72.8586 381.81 57.4076 381.81 57.4076C381.81 57.4076 377.664 64.9552 374.203 66.1282C371.326 67.1089 368.559 65.0802 368.559 65.0802Z" fill="#263238"/>
<path d="M365.008 70.9932C364.641 71.3297 364.264 71.6662 363.878 71.9547C363.491 72.2431 363.104 72.5988 362.697 72.9161C362.36 73.1854 362.003 73.4353 361.646 73.6853C361.532 73.7719 361.413 73.8521 361.289 73.9257C360.942 74.1757 360.595 74.3968 360.238 74.6179C359.881 74.8391 359.385 75.1564 358.938 75.3967C358.492 75.6371 358.056 75.8967 357.609 76.1179C357.163 76.339 356.707 76.5794 356.25 76.7909C355.794 77.0024 355.328 77.2139 354.852 77.3966C354.376 77.5793 354.019 77.7524 353.592 77.9062C352.749 78.2235 351.886 78.5119 351.014 78.7715C350.706 78.8677 350.389 78.9542 350.081 79.0311C348.76 79.3964 347.419 79.6917 346.064 79.9157C342.702 80.4637 339.736 83.1463 337.842 86.1461" stroke="#263238" stroke-linecap="round" stroke-linejoin="round"/>
<path d="M408.6 85.6365C407.668 81.406 405.733 77.4255 402.103 75.0602C399.227 73.2046 395.706 72.6469 392.393 71.6758C391.768 71.4932 391.143 71.2912 390.528 71.0509L390.201 70.9259" stroke="#263238" stroke-linecap="round" stroke-linejoin="round"/>
<path d="M380.412 94.7707C380.412 95.838 379.797 96.6937 379.043 96.6937C378.289 96.6937 377.674 95.838 377.674 94.7707C377.674 93.7035 378.289 92.8478 379.043 92.8478C379.797 92.8478 380.412 93.7035 380.412 94.7707Z" fill="#263238"/>
<path d="M351.023 85.7904C353.335 89.7503 355.049 94.0115 356.112 98.4435" stroke="#263238" stroke-linecap="round" stroke-linejoin="round"/>
<path d="M355.695 86.2424L357.004 93.2227" stroke="#263238" stroke-linecap="round" stroke-linejoin="round"/>
<path d="M419.428 63.277C423.654 38.4213 406.295 14.9505 380.654 10.8535C355.013 6.75648 330.801 23.5847 326.575 48.4404C322.349 73.2962 339.708 96.767 365.349 100.864C390.99 104.961 415.202 88.1327 419.428 63.277Z" stroke="#263238" stroke-miterlimit="10"/>
<path d="M281.138 350.197V384.012C281.138 386.435 302.75 392.127 330.234 392.127C357.718 392.127 380.659 386.435 380.659 384.012V350.197H281.138Z" fill="white" stroke="#263238" stroke-miterlimit="10"/>
<path d="M281.138 371.167C281.138 373.59 302.75 379.291 330.234 379.291C357.718 379.291 380.659 373.59 380.659 371.167" fill="white"/>
<path d="M281.138 371.167C281.138 373.59 302.75 379.291 330.234 379.291C357.718 379.291 380.659 373.59 380.659 371.167" stroke="#263238" stroke-width="2" stroke-miterlimit="10"/>
<path d="M380.659 350.197C380.659 351.255 376.444 352.601 369.412 353.774C343.876 357.491 317.911 357.491 292.375 353.774C285.353 352.601 281.138 351.255 281.138 350.197C281.138 347.765 303.414 345.813 330.889 345.813C358.363 345.813 380.659 347.765 380.659 350.197Z" fill="#92E3A9" stroke="#263238" stroke-miterlimit="10"/>
<path d="M369.412 353.793C343.876 357.511 317.911 357.511 292.375 353.793C299.626 352.562 314.196 351.726 330.889 351.726C347.581 351.726 362.162 352.543 369.412 353.793Z" fill="#263238"/>
<path d="M348.692 200.86C348.692 200.86 348.692 195.88 341.501 188.918C334.31 181.957 329.698 177.958 329.698 177.958C329.698 177.958 326.098 189.409 332.773 196.389C337.681 201.3 343.006 205.803 348.692 209.85V200.86Z" fill="#92E3A9"/>
<path d="M338.258 231.954C338.258 231.954 338.258 226.974 331.067 220.013C323.876 213.052 319.254 209.052 319.254 209.052C319.254 209.052 315.663 220.503 322.339 227.474C327.229 232.385 332.537 236.888 338.208 240.935L338.258 231.954Z" fill="#92E3A9"/>
<path d="M348.236 209.35C348.236 209.35 348.791 204.389 356.696 198.197C364.601 192.005 369.59 188.515 369.59 188.515C369.59 188.515 371.921 200.274 364.522 206.514C359.117 210.878 353.344 214.795 347.264 218.224L348.236 209.35Z" fill="#92E3A9"/>
<path d="M335.639 246.107C335.639 246.107 336.71 241.242 345.25 235.887C353.79 230.531 359.136 227.57 359.136 227.57C359.136 227.57 360.177 239.502 352.143 244.963C346.283 248.764 340.106 252.083 333.675 254.886L335.639 246.107Z" fill="#92E3A9"/>
<path d="M338.01 286.095C338.01 286.095 338.01 281.115 345.191 274.144C352.372 267.173 357.004 263.193 357.004 263.193C357.004 263.193 360.604 274.644 353.929 281.605C349.023 286.519 343.698 291.021 338.01 295.066V286.095Z" fill="#92E3A9"/>
<path d="M337.891 295.864C337.891 295.864 338.615 290.932 332.525 283.048C326.435 275.163 322.468 270.548 322.468 270.548C322.468 270.548 317.221 281.375 322.815 289.163C326.955 294.694 331.566 299.879 336.601 304.662L337.891 295.864Z" fill="#92E3A9"/>
<path d="M330.789 324.862C330.789 324.862 330.789 319.882 337.99 312.92C345.191 305.959 349.793 301.96 349.793 301.96C349.793 301.96 353.353 313.411 346.708 320.382C341.797 325.29 336.472 329.792 330.789 333.842V324.862Z" fill="#92E3A9"/>
<path d="M349.822 342.899C347.088 347.575 344.04 352.072 340.698 356.36C339.765 356.36 338.813 356.427 337.861 356.447H337.048L335.669 351.332L335.59 351.043C335.33 349.524 335.397 347.969 335.788 346.476C336.221 344.432 336.925 342.451 337.881 340.582C338.317 339.688 338.873 338.736 339.428 337.746C344.566 329.275 347.988 324.285 347.988 324.285C347.988 324.285 354.464 334.477 349.822 342.899Z" fill="#92E3A9"/>
<path d="M336.81 356.495C336.314 354.889 335.818 353.245 335.332 351.601C334.955 350.322 334.588 349.043 334.221 347.755C333.854 346.466 333.526 345.303 333.229 344.111C332.128 340.101 331.245 336.506 330.799 333.938C330.348 331.19 330.348 328.389 330.799 325.641C330.997 324.333 331.275 323.016 331.612 321.68C332.872 316.603 334.895 311.171 336.403 304.469C336.73 303.046 337.028 301.585 337.286 300.046V299.864C337.424 299.008 337.563 298.123 337.682 297.22C337.682 296.989 337.742 296.768 337.762 296.537C337.811 296.123 337.861 295.71 337.891 295.287V295.239C337.94 294.777 337.97 294.277 337.99 293.854C338.084 292.054 338.084 290.251 337.99 288.451C337.395 276.336 333.209 264.568 334.022 254.636C334.111 253.508 334.277 252.387 334.518 251.28C335.13 248.585 335.925 245.932 336.899 243.338C337.216 242.444 337.563 241.56 337.891 240.675C337.891 240.617 337.891 240.56 337.96 240.492C338.029 240.425 338.099 240.156 338.158 239.992C341.382 232.166 345.339 224.772 347.283 214.994C347.521 213.725 347.74 212.465 347.938 211.196V211.148C348.017 210.59 348.107 210.033 348.186 209.475C348.186 209.167 348.275 208.85 348.315 208.514C348.424 207.783 348.513 207.033 348.593 206.302C348.87 204.043 349.079 201.774 349.247 199.505" stroke="#263238" stroke-linecap="round" stroke-linejoin="round"/>
<path d="M348.166 212.648L355.922 206.889" stroke="#263238" stroke-linecap="round" stroke-linejoin="round"/>
<path d="M348.533 206.014L345.29 200.418" stroke="#263238" stroke-linecap="round" stroke-linejoin="round"/>
<path d="M335.015 250.732C335.015 250.732 341.501 246.011 348.166 241.3" stroke="#263238" stroke-linecap="round" stroke-linejoin="round"/>
<path d="M338.258 240.915C338.258 240.915 332.852 230.647 326.723 223.82" stroke="#263238" stroke-linecap="round" stroke-linejoin="round"/>
<path d="M338.268 293.22C341.972 286.614 346.65 280.567 352.153 275.269" stroke="#263238" stroke-linecap="round" stroke-linejoin="round"/>
<path d="M336.998 300.162C335.033 295.67 332.681 291.348 329.966 287.239C326.187 281.826 325.642 281.124 325.642 281.124" stroke="#263238" stroke-linecap="round" stroke-linejoin="round"/>
<path d="M330.789 333.977C332.435 330.022 334.388 326.194 336.631 322.526C338.877 319.122 341.412 315.906 344.209 312.911" stroke="#263238" stroke-linecap="round" stroke-linejoin="round"/>
<path d="M337.861 356.476C337.954 353.786 338.63 351.146 339.845 348.726C342.592 343.659 345.617 337.015 346.877 334.4" stroke="#263238" stroke-linecap="round" stroke-linejoin="round"/>
<path d="M301.619 267.375C301.619 267.375 301.054 264.251 304.783 259.126C308.512 254.001 310.962 251.011 310.962 251.011C310.962 251.011 314.503 257.809 311.091 262.895C308.562 266.485 305.725 269.862 302.611 272.99L301.619 267.375Z" fill="#92E3A9"/>
<path d="M311.637 285.768C311.637 285.768 311.081 282.643 314.811 277.528C318.54 272.413 320.99 269.404 320.99 269.404C320.99 269.404 324.521 276.211 321.119 281.278C318.605 284.869 315.785 288.25 312.688 291.383L311.637 285.768Z" fill="#92E3A9"/>
<path d="M302.839 272.644C302.839 272.644 301.927 269.587 296.293 266.539C290.659 263.491 287.098 261.837 287.098 261.837C287.098 261.837 286.96 269.452 292.345 272.567C296.227 274.743 300.291 276.595 304.495 278.105L302.839 272.644Z" fill="#92E3A9"/>
<path d="M314.86 294.335C314.86 294.335 313.64 291.403 307.689 288.941C301.738 286.48 298.028 285.191 298.028 285.191C298.028 285.191 298.713 292.778 304.356 295.354C308.451 297.12 312.691 298.551 317.032 299.633L314.86 294.335Z" fill="#92E3A9"/>
<path d="M317.856 319.699C317.856 319.699 317.3 316.564 312.014 312.969C306.727 309.373 303.385 307.344 303.385 307.344C303.385 307.344 302.393 314.901 307.352 318.574C310.986 321.116 314.827 323.367 318.838 325.304L317.856 319.699Z" fill="#92E3A9"/>
<path d="M319.026 325.805C319.026 325.805 318.034 322.785 320.95 317.209C323.866 311.632 325.909 308.344 325.909 308.344C325.909 308.344 330.412 314.594 327.744 320.074C325.753 323.978 323.431 327.715 320.801 331.246L319.026 325.805Z" fill="#92E3A9"/>
<path d="M328.052 350.985C328.052 350.985 328.429 347.841 333.537 343.89C338.645 339.938 341.828 337.803 341.828 337.803C341.828 337.803 343.247 345.293 338.506 349.226C335.032 351.983 331.326 354.453 327.427 356.61L328.052 350.985Z" fill="#92E3A9"/>
<path d="M326.713 343.217C326.713 343.217 326.157 340.101 320.871 336.486C315.584 332.871 312.242 330.862 312.242 330.862C312.242 330.862 311.25 338.419 316.209 342.082C319.841 344.632 323.686 346.883 327.704 348.812L326.713 343.217Z" fill="#92E3A9"/>
<path d="M325.651 356.514C324.303 356.514 322.954 356.456 321.634 356.408C319.909 356.36 318.223 356.283 316.566 356.206C313.075 351.466 315.872 344.669 315.872 344.669C315.872 344.669 318.57 347.418 322.745 352.235C323.903 353.532 324.88 354.971 325.651 356.514V356.514Z" fill="#92E3A9"/>
<path opacity="0.2" d="M348.692 200.86C348.692 200.86 348.692 195.88 341.501 188.918C334.31 181.957 329.698 177.958 329.698 177.958C329.698 177.958 326.098 189.409 332.773 196.389C337.681 201.3 343.006 205.803 348.692 209.85V200.86Z" fill="black"/>
<path opacity="0.2" d="M338.258 231.954C338.258 231.954 338.258 226.974 331.067 220.013C323.876 213.052 319.254 209.052 319.254 209.052C319.254 209.052 315.663 220.503 322.339 227.474C327.229 232.385 332.537 236.888 338.208 240.935L338.258 231.954Z" fill="black"/>
<path opacity="0.2" d="M348.236 209.35C348.236 209.35 348.791 204.389 356.696 198.197C364.601 192.005 369.59 188.515 369.59 188.515C369.59 188.515 371.921 200.274 364.522 206.514C359.117 210.878 353.344 214.795 347.264 218.224L348.236 209.35Z" fill="black"/>
<path opacity="0.2" d="M335.639 246.107C335.639 246.107 336.71 241.242 345.25 235.887C353.79 230.531 359.136 227.57 359.136 227.57C359.136 227.57 360.177 239.502 352.143 244.963C346.283 248.764 340.106 252.083 333.675 254.886L335.639 246.107Z" fill="black"/>
<path opacity="0.2" d="M338.01 286.095C338.01 286.095 338.01 281.115 345.191 274.144C352.372 267.173 357.004 263.193 357.004 263.193C357.004 263.193 360.604 274.644 353.929 281.605C349.023 286.519 343.698 291.021 338.01 295.066V286.095Z" fill="black"/>
<path opacity="0.2" d="M330.789 324.862C330.789 324.862 330.789 319.882 337.99 312.92C345.191 305.959 349.793 301.96 349.793 301.96C349.793 301.96 353.353 313.411 346.708 320.382C341.797 325.29 336.472 329.792 330.789 333.842V324.862Z" fill="black"/>
<path opacity="0.2" d="M301.619 267.375C301.619 267.375 301.054 264.251 304.783 259.126C308.512 254.001 310.962 251.011 310.962 251.011C310.962 251.011 314.503 257.809 311.091 262.895C308.562 266.485 305.725 269.862 302.611 272.99L301.619 267.375Z" fill="black"/>
<path opacity="0.2" d="M332.525 283.047C326.425 275.154 322.468 270.548 322.468 270.548C322.468 270.548 322.239 271.01 321.932 271.808C321.69 270.969 321.375 270.152 320.99 269.366C320.99 269.366 318.54 272.365 314.811 277.49C311.081 282.615 311.637 285.73 311.637 285.73L312.629 291.345C315.421 288.53 317.99 285.515 320.315 282.326C320.517 284.776 321.376 287.133 322.805 289.162C326.945 294.694 331.556 299.878 336.591 304.661L337.881 295.825C337.881 295.825 338.615 290.932 332.525 283.047Z" fill="black"/>
<path opacity="0.2" d="M302.839 272.644C302.839 272.644 301.927 269.587 296.293 266.539C290.659 263.491 287.098 261.837 287.098 261.837C287.098 261.837 286.96 269.452 292.345 272.567C296.227 274.743 300.291 276.595 304.495 278.105L302.839 272.644Z" fill="black"/>
<path opacity="0.2" d="M314.86 294.335C314.86 294.335 313.64 291.403 307.689 288.941C301.738 286.48 298.028 285.191 298.028 285.191C298.028 285.191 298.713 292.778 304.356 295.354C308.451 297.12 312.691 298.551 317.032 299.633L314.86 294.335Z" fill="black"/>
<path opacity="0.2" d="M317.856 319.699C317.856 319.699 317.3 316.564 312.014 312.969C306.727 309.373 303.385 307.344 303.385 307.344C303.385 307.344 302.393 314.901 307.352 318.574C310.986 321.116 314.827 323.367 318.838 325.304L317.856 319.699Z" fill="black"/>
<path opacity="0.2" d="M319.026 325.805C319.026 325.805 318.034 322.785 320.95 317.209C323.866 311.632 325.909 308.344 325.909 308.344C325.909 308.344 330.412 314.594 327.744 320.074C325.753 323.978 323.431 327.715 320.801 331.246L319.026 325.805Z" fill="black"/>
<path opacity="0.2" d="M347.988 324.285C347.988 324.285 344.566 329.314 339.428 337.746C338.833 338.707 338.317 339.669 337.881 340.582C336.661 341.476 335.203 342.563 333.537 343.851C328.429 347.803 328.052 350.947 328.052 350.947L327.427 356.572C330.282 354.989 333.034 353.239 335.669 351.332L337.048 356.447H337.861C338.853 356.447 339.765 356.399 340.698 356.36C344.04 352.072 347.088 347.575 349.823 342.899C354.464 334.477 347.988 324.285 347.988 324.285Z" fill="black"/>
<path opacity="0.2" d="M326.713 343.217C326.713 343.217 326.157 340.101 320.871 336.486C315.584 332.871 312.242 330.862 312.242 330.862C312.242 330.862 311.25 338.419 316.209 342.082C319.841 344.632 323.686 346.883 327.704 348.812L326.713 343.217Z" fill="black"/>
<path opacity="0.2" d="M325.651 356.514C324.303 356.514 322.954 356.456 321.634 356.408C319.909 356.36 318.223 356.283 316.566 356.206C313.075 351.466 315.872 344.669 315.872 344.669C315.872 344.669 318.57 347.418 322.745 352.235C323.903 353.532 324.88 354.971 325.651 356.514V356.514Z" fill="black"/>
<path d="M327.268 356.533C327.556 353.524 327.744 350.764 327.734 348.957C327.705 347.209 327.394 345.477 326.812 343.823C326.544 342.996 326.197 342.159 325.82 341.313C324.451 338.284 322.587 335.111 320.91 331.102C320.494 330.141 320.097 329.121 319.74 328.035C319.581 327.593 319.423 327.131 319.274 326.67C319.278 326.603 319.278 326.535 319.274 326.468C319.165 326.131 319.076 325.795 318.976 325.458C318.887 325.16 318.818 324.853 318.748 324.497C318.52 323.535 318.351 322.516 318.213 321.516C317.161 313.767 318.5 305.806 316.834 299.575C316.646 298.881 316.418 298.197 316.15 297.527C315.467 295.908 314.676 294.334 313.779 292.816C313.472 292.278 313.154 291.758 312.787 291.249C312.773 291.213 312.756 291.177 312.738 291.143C312.668 291.028 312.609 290.932 312.539 290.835C309.653 286.259 306.34 282.048 304.029 276.125C303.732 275.356 303.454 274.577 303.186 273.779C303.165 273.739 303.149 273.697 303.137 273.654C303.037 273.356 302.938 273.067 302.849 272.76C302.789 272.606 302.73 272.442 302.68 272.279C302.522 271.798 302.373 271.317 302.224 270.837C301.798 269.452 301.411 268.058 301.054 266.645" stroke="#263238" stroke-linecap="round" stroke-linejoin="round"/>
<path d="M303.265 274.702L297.761 271.904" stroke="#263238" stroke-linecap="round" stroke-linejoin="round"/>
<path d="M302.293 270.587L303.702 266.741" stroke="#263238" stroke-linecap="round" stroke-linejoin="round"/>
<path d="M315.773 297.2C315.773 297.2 311.2 294.931 306.469 292.672" stroke="#263238" stroke-linecap="round" stroke-linejoin="round"/>
<path d="M312.688 291.383C314.036 287.245 315.814 283.251 317.994 279.461" stroke="#263238" stroke-linecap="round" stroke-linejoin="round"/>
<path d="M318.49 324.16C315.427 320.412 311.819 317.115 307.778 314.372" stroke="#263238" stroke-linecap="round" stroke-linejoin="round"/>
<path d="M320.067 328.41C320.801 325.379 321.796 322.414 323.043 319.545C324.818 315.757 325.027 315.257 325.027 315.257" stroke="#263238" stroke-linecap="round" stroke-linejoin="round"/>
<path d="M327.496 354.351C329.294 352.2 331.286 350.208 333.447 348.399C334.818 347.418 336.105 346.331 337.296 345.149" stroke="#263238" stroke-linecap="round" stroke-linejoin="round"/>
<path d="M327.734 348.986C326.259 346.676 324.601 344.48 322.775 342.419C320.988 340.524 319.041 338.778 316.953 337.198" stroke="#263238" stroke-linecap="round" stroke-linejoin="round"/>
<path d="M317.707 350.909C318.47 351.966 320.008 354.178 321.674 356.399" stroke="#263238" stroke-linecap="round" stroke-linejoin="round"/>
<path d="M234.482 376.965C225.476 370.84 215.091 360.927 211.669 346.495C208.927 353.361 205.23 359.83 200.68 365.725C194.262 373.778 185.37 379.647 175.288 382.483C172.819 383.214 171.43 384.031 171.43 384.897C171.43 387.964 188.867 390.454 210.38 390.454C231.893 390.454 249.339 387.964 249.339 384.897C249.339 384.147 248.268 383.416 246.364 382.762C242.149 381.365 238.151 379.414 234.482 376.965V376.965Z" fill="white" stroke="#263238" stroke-miterlimit="10"/>
<path d="M207.732 221.109L199.658 353.245L210.648 368.677L221.489 355.351L215.25 221.474L207.732 221.109Z" fill="white" stroke="#263238" stroke-miterlimit="10"/>
<path d="M255.291 209.802H147.309V216.705C147.309 221.965 175.933 226.233 211.243 226.233C246.552 226.233 275.177 221.965 275.177 216.705V209.802H255.291Z" fill="#263238"/>
<path d="M211.243 219.33C246.553 219.33 275.177 215.064 275.177 209.802C275.177 204.54 246.553 200.274 211.243 200.274C175.933 200.274 147.309 204.54 147.309 209.802C147.309 215.064 175.933 219.33 211.243 219.33Z" fill="#92E3A9"/>
<path d="M211.243 219.33C246.553 219.33 275.177 215.064 275.177 209.802C275.177 204.54 246.553 200.274 211.243 200.274C175.933 200.274 147.309 204.54 147.309 209.802C147.309 215.064 175.933 219.33 211.243 219.33Z" stroke="#263238" stroke-linecap="round" stroke-linejoin="round"/>
<path d="M254.854 190.726H222.124C222.124 190.726 222.124 199.245 226.746 210.388C226.746 212.523 232.032 214.234 238.558 214.234C245.085 214.234 250.361 212.513 250.361 210.388C250.371 210.283 250.371 210.177 250.361 210.071C254.805 199.081 254.854 190.726 254.854 190.726Z" fill="white" stroke="#263238" stroke-linecap="round" stroke-linejoin="round"/>
<path d="M238.598 195.351C247.675 195.351 255.033 193.28 255.033 190.726C255.033 188.172 247.675 186.101 238.598 186.101C229.521 186.101 222.163 188.172 222.163 190.726C222.163 193.28 229.521 195.351 238.598 195.351Z" fill="white" stroke="#263238" stroke-linecap="round" stroke-linejoin="round"/>
<path d="M238.598 194.591C246.743 194.591 253.347 192.861 253.347 190.726C253.347 188.591 246.743 186.861 238.598 186.861C230.452 186.861 223.849 188.591 223.849 190.726C223.849 192.861 230.452 194.591 238.598 194.591Z" fill="white" stroke="#263238" stroke-linecap="round" stroke-linejoin="round"/>
<path d="M225.238 192.361C227.598 193.678 232.687 194.582 238.598 194.582C244.509 194.582 249.597 193.678 251.948 192.361C249.597 191.053 244.499 190.14 238.598 190.14C232.696 190.14 227.598 191.053 225.238 192.361Z" fill="#263238" stroke="#263238" stroke-linecap="round" stroke-linejoin="round"/>
<path d="M231.725 192.726C231.725 192.726 227.45 182.381 228.7 179.621C229.949 176.862 234.036 177.208 235.464 179.967C236.892 182.727 237.596 193.072 237.596 193.072C237.596 193.072 233.341 194.457 231.725 192.726Z" fill="#92E3A9" stroke="#263238" stroke-miterlimit="10"/>
<path d="M235.464 193.764C235.464 193.764 232.082 175.496 232.964 172.035C233.847 168.574 238.31 167.372 241.504 169.958C244.698 172.545 243.488 185.659 243.488 187.553C243.488 189.447 243.309 193.418 243.309 193.418C240.773 194.213 238.064 194.332 235.464 193.764V193.764Z" fill="#92E3A9" stroke="#263238" stroke-miterlimit="10"/>
<path d="M242.397 193.418C242.397 193.418 239.759 186.342 241.336 183.582C242.913 180.823 246.136 181.861 246.136 184.102C246.136 186.342 246.315 191.697 245.958 192.899C245.601 194.101 243.647 194.457 242.397 193.418Z" fill="#92E3A9" stroke="#263238" stroke-miterlimit="10"/>
<path d="M238.489 193.226C234.035 176.881 237.775 168.737 237.775 168.737C237.775 168.737 243.111 177.708 240.264 193.226" stroke="#263238" stroke-linecap="round" stroke-linejoin="round"/>
<path d="M231.189 179.275C231.189 179.275 227.093 179.448 233.857 193.072" stroke="#263238" stroke-linecap="round" stroke-linejoin="round"/>
<path d="M133.859 378.57C124.853 373.167 114.469 364.436 111.047 351.716C108.255 357.843 104.552 363.541 100.057 368.628C93.739 375.792 84.7133 380.791 74.6659 383.397C72.1962 384.041 70.8076 384.762 70.8076 385.522C70.8076 388.223 88.2442 390.416 109.757 390.416C131.27 390.416 148.717 388.223 148.717 385.522C148.717 384.858 147.646 384.214 145.741 383.599C141.578 382.413 137.586 380.724 133.859 378.57V378.57Z" fill="white" stroke="#263238" stroke-miterlimit="10"/>
<path d="M107.109 241.242L99.0352 357.658L110.025 371.263L120.866 359.523L114.627 241.569L107.109 241.242Z" fill="white" stroke="#263238" stroke-miterlimit="10"/>
<path d="M153.844 246.588H45.8823V253.501C45.8823 258.751 74.5069 263.02 109.817 263.02C145.126 263.02 173.751 258.751 173.751 253.501V246.588H153.844Z" fill="#263238"/>
<path d="M109.807 256.126C145.117 256.126 173.741 251.86 173.741 246.598C173.741 241.335 145.117 237.069 109.807 237.069C74.4969 237.069 45.8726 241.335 45.8726 246.598C45.8726 251.86 74.4969 256.126 109.807 256.126Z" fill="#92E3A9" stroke="#263238" stroke-miterlimit="10"/>
<path d="M212.314 359.927C210.171 362.235 206.363 362.225 203.387 361.321C198.745 359.937 194.758 356.975 190.186 355.418C184.572 353.495 177.916 353.572 173.552 349.649C171.367 347.531 169.926 344.799 169.436 341.842L169.317 341.188C168.932 338.014 168.909 334.809 169.248 331.631L180.108 325.487C187.27 335.342 199.449 344.659 206.422 350.11C208.196 351.41 209.873 352.831 211.441 354.36C213.95 357.379 212.314 359.927 212.314 359.927Z" fill="white"/>
<path d="M169.208 331.621C168.869 334.8 168.892 338.005 169.278 341.178C169.685 344.375 171.174 347.351 173.513 349.639C177.877 353.572 184.532 353.485 190.146 355.408C194.718 356.966 198.706 359.927 203.347 361.312C206.402 362.216 210.171 362.225 212.274 359.918C212.274 359.918 213.911 357.37 211.362 354.341C208.813 351.312 189.779 338.88 180.029 325.497L169.208 331.621Z" stroke="#263238" stroke-miterlimit="10"/>
<path d="M80.4779 206.764C80.4779 206.764 67.941 219.186 69.0817 234.156C70.2223 249.126 90.2377 255.77 103.459 260.895C111.677 264.158 119.269 268.741 125.914 274.452C125.914 274.452 121.6 286.172 132.937 300.815C144.273 315.459 169.972 333.785 169.972 333.785C172.338 333.761 174.642 333.05 176.587 331.744C178.531 330.438 180.028 328.597 180.882 326.458C180.882 326.458 156.086 284.336 149.966 266.76C149.966 266.76 148.826 253.299 143.113 248.444C143.113 248.444 150.691 240.598 150.621 231.781C150.552 222.965 142.091 209.215 132.173 202.841L131.439 205.043L122.512 212.071C122.512 212.071 102.179 213.629 88.0755 202.283V198.995L86.9547 200.36L80.4779 206.764Z" fill="#263238"/>
<path d="M140.167 244.377C141.241 245.674 142.235 247.032 143.143 248.444" stroke="white" stroke-linecap="round" stroke-linejoin="round"/>
<path d="M115.163 221.484C115.163 221.484 128.433 231.416 137.449 241.252" stroke="white" stroke-linecap="round" stroke-linejoin="round"/>
<path d="M125.914 230.224C125.914 230.224 130.615 225.859 131.478 221.484" stroke="white" stroke-linecap="round" stroke-linejoin="round"/>
<path d="M212.314 359.927C210.171 362.235 206.363 362.225 203.387 361.321C198.745 359.937 194.758 356.975 190.186 355.418C184.572 353.495 177.917 353.572 173.553 349.649C171.311 347.63 169.288 343.12 169 337.669C171.642 340.297 174.682 342.518 178.016 344.255C181.388 345.966 184.959 347.986 188.301 349.755C191.734 351.726 195.52 353.05 199.459 353.658C200.624 353.782 201.803 353.654 202.911 353.283C205.718 352.101 205.282 350.274 205.351 349.332C207.471 350.903 209.503 352.582 211.441 354.36C213.95 357.379 212.314 359.927 212.314 359.927Z" fill="#263238"/>
<path d="M119.507 373.35C119.507 380.897 117.166 388.733 111.731 394.098C110.837 395.129 109.617 395.846 108.26 396.137C107.373 396.167 106.493 395.984 105.697 395.605C104.901 395.226 104.214 394.662 103.697 393.964C101.515 391.387 100.841 387.868 100.989 384.532C101.138 381.195 101.981 377.936 102.527 374.638C102.745 373.263 102.914 371.888 103.023 370.504C103.272 367.203 103.199 363.887 102.804 360.6C102.378 357.052 101.565 353.524 104.253 350.812C106.306 348.745 110.204 345.64 113.179 347.995C114.105 348.881 114.748 350.006 115.034 351.236C115.49 352.61 115.946 353.985 116.373 355.38C118.314 361.19 119.37 367.244 119.507 373.35V373.35Z" fill="white"/>
<path d="M102.804 360.6C103.367 365.27 103.273 369.992 102.527 374.638C101.991 377.936 101.128 381.195 100.989 384.532C100.85 387.868 101.515 391.387 103.697 393.964C104.214 394.662 104.901 395.226 105.697 395.605C106.493 395.984 107.373 396.167 108.259 396.137C109.616 395.846 110.836 395.129 111.731 394.098C117.166 388.695 119.497 380.897 119.507 373.35C119.517 365.802 117.404 358.408 114.994 351.236C114.708 350.006 114.065 348.881 113.139 347.995C110.164 345.64 106.306 348.745 104.213 350.812C101.565 353.524 102.417 357.052 102.804 360.6Z" stroke="#263238" stroke-miterlimit="10"/>
<path d="M102.646 355.716C102.646 355.716 108.23 363.84 116.343 355.716C116.343 355.716 115.222 332.948 117.731 321.17C120.241 309.392 129.753 272.538 116.343 259.808C102.933 247.078 90.9021 258.991 88.6705 269.289C86.4388 279.586 93.4214 308.844 97.5971 322.391C101.773 335.938 102.646 355.716 102.646 355.716Z" fill="#263238"/>
<path d="M120.687 266.385C120.687 266.385 112.336 245.146 94.5425 257.434" stroke="white" stroke-linecap="round" stroke-linejoin="round"/>
<path d="M119.507 373.349C119.507 380.897 117.166 388.733 111.731 394.098C110.837 395.129 109.617 395.846 108.26 396.136C107.373 396.166 106.493 395.984 105.697 395.605C104.901 395.226 104.214 394.662 103.697 393.963C101.515 391.387 100.841 387.868 100.989 384.531C101.138 381.195 101.981 377.936 102.527 374.638C102.745 373.263 102.914 371.888 103.023 370.503C103.648 373.388 103.767 379.762 103.856 380.945C103.889 382.112 104.097 383.268 104.471 384.378C104.663 384.931 104.976 385.437 105.388 385.862C105.801 386.287 106.303 386.62 106.861 386.839C107.589 387.03 108.357 387.023 109.081 386.819C109.805 386.616 110.458 386.224 110.967 385.685C111.974 384.595 112.716 383.301 113.139 381.897C115.817 374.57 116.175 366.657 116.065 358.889C116 357.713 116.09 356.533 116.333 355.379C118.288 361.188 119.357 367.242 119.507 373.349V373.349Z" fill="#263238"/>
<path d="M84.4356 111.5C83.5058 113.597 83.1505 115.891 83.4042 118.16C83.6579 120.429 84.512 122.596 85.8837 124.451C90.6247 130.999 105.215 137.133 113.655 133.653C122.096 130.172 137.291 130.355 144.254 134.614C151.216 138.873 177.391 135.951 177.391 120.557C177.391 120.557 180.982 123.615 180.139 128.095C180.139 128.095 191.743 118.144 178.026 103.366C178.026 103.366 181.914 96.5492 173.741 95.5396C165.568 94.5301 164.815 90.2323 164.031 85.7325C163.247 81.2328 163.436 70.2527 153.279 70.3489C153.279 70.3489 136.874 54.5999 118.565 62.3686C100.255 70.1374 104.679 81.5982 96.0699 79.9733C95.7162 80.9669 95.7162 82.0468 96.0699 83.0404C96.0699 83.0404 98.8173 89.1746 94.8103 92.0399C90.8032 94.9051 80.1508 100.03 79.6152 114.154C80.0812 113.318 80.7803 112.626 81.6326 112.157C82.485 111.687 83.4563 111.46 84.4356 111.5V111.5Z" fill="#263238"/>
<path d="M111.215 126.826L114.31 125.23V117.837C114.31 117.837 119.071 126.307 124.486 127.201C129.902 128.096 136.18 118.933 136.18 118.933C136.18 118.933 135.109 124.826 136.18 126.307C137.251 127.788 146.208 132.326 146.208 132.326C146.208 132.326 132.451 144.873 129.346 154.44C129.346 154.44 128.354 145.402 121.927 140.643C117.018 137.174 113.288 132.363 111.215 126.826V126.826Z" fill="white"/>
<path d="M111.215 126.826C107.585 127.867 103.769 128.152 100.017 127.663C94.6118 126.701 85.7745 123.605 79.3672 128.095C72.9598 132.585 74.1501 150.613 73.4161 155.661C72.6821 160.709 72.0771 165.632 67.6237 169.977C63.1704 174.323 60.1849 186.794 61.3553 191.399C61.3553 191.399 58.0723 195.716 60.4626 203.725C62.853 211.734 64.7672 210.244 64.7672 210.244C64.7672 210.244 74.5666 210.619 79.6449 207.648C79.6449 207.648 84.7231 203.648 86.4192 200.351C88.1152 197.053 85.2785 191.399 85.2785 191.399L88.1053 194.284V202.312C88.1053 202.312 98.718 209.821 109.608 211.302C122.502 212.1 122.076 212.081 122.076 212.081L131.201 205.841C131.201 205.841 135.168 193.87 138.947 189.543C142.726 185.217 151.603 177.785 152.168 173.391C152.734 168.997 150.8 158.613 150.8 158.613C150.8 158.613 157.276 165.18 158.784 172.612C160.292 180.044 180.605 165.016 180.605 165.016C180.605 165.016 174.604 153.998 173.027 148.065C171.45 142.133 169.06 135.162 163.168 134.316C157.276 133.47 145.721 132.653 145.721 132.653C145.721 132.653 132.976 144.191 129.435 154.949C129.435 154.949 128.096 146.604 121.887 140.681C115.679 134.758 111.394 130.98 111.215 126.826Z" fill="#92E3A9"/>
<path opacity="0.6" d="M146.208 132.326C146.208 132.326 132.471 145.2 129.703 153.392C129.703 153.392 126.232 144.739 120.965 139.729C115.698 134.72 113.1 130.816 111.215 126.826L108.696 127.663C108.696 127.663 106.256 133.374 105.859 136.047L112.991 139.748L112.406 152.44C112.406 152.44 124.982 164.997 126.291 172.631L129.743 174.554C129.743 174.554 131.429 165.045 130.626 159.872C130.626 159.872 132.609 157.295 137.489 155.392C142.369 153.488 145.692 151.805 145.692 151.805L144.303 143.652C147.883 142.8 151.356 141.568 154.658 139.979L148.459 132.807L146.208 132.326Z" fill="white"/>
<path opacity="0.2" d="M168.018 167.804C168.018 167.804 164.051 156.844 148.062 149.719L148.915 152.988L144.878 152.479C144.878 152.479 145.87 169.151 140.018 174.593C134.167 180.034 111.652 175.641 105.8 180.525L116.026 181.304C116.026 181.304 107.198 183.65 106.732 186.592C106.266 189.534 118.872 188.005 123.921 190.303C123.921 190.303 125.101 204.725 120.648 211.956L122.086 212.052L131.439 205.043C131.439 205.043 137.092 190.072 141.357 186.592C145.622 183.111 152.089 177.314 151.99 172.641C151.891 167.968 151.097 158.219 151.097 158.219C151.097 158.219 156.562 164.853 158.04 170.16C159.518 175.467 168.018 167.804 168.018 167.804Z" fill="black"/>
<path d="M167.453 187.034C167.453 187.034 170.805 200.687 183.669 200.351C183.669 200.351 185.177 201.014 186.863 197.264C188.549 193.514 190.275 189.649 188.668 182.294C187.062 174.939 181.765 166.795 181.765 166.795L166.362 175.198L167.453 187.034Z" fill="white"/>
<path d="M145.067 95.5686C145.067 95.5686 144.075 78.6947 131.181 74.7238C118.287 70.7529 107.069 80.4927 104.57 93.7611C104.57 93.7611 107.545 107.799 109.4 111.145C111.255 114.491 118.753 125.855 124.119 127.211C129.485 128.567 136.944 118.336 139.919 113.914C142.895 109.491 145.017 102.049 145.454 95.5686" fill="white"/>
<path d="M145.067 95.5686C145.067 95.5686 144.075 78.6947 131.181 74.7238C118.287 70.7529 107.069 80.4927 104.57 93.7611C104.57 93.7611 107.545 107.799 109.4 111.145C111.255 114.491 118.753 125.855 124.119 127.211C129.485 128.567 136.944 118.336 139.919 113.914C142.895 109.491 145.017 102.049 145.454 95.5686" stroke="#263238" stroke-miterlimit="10"/>
<path d="M123.891 114.01C124.187 114.498 124.555 114.942 124.982 115.327C126.49 116.683 126.966 114.529 126.966 113.404C126.884 110.711 127.363 108.03 128.374 105.52" stroke="#263238" stroke-linecap="round" stroke-linejoin="round"/>
<path d="M130.239 102.991C131.439 101.212 134.484 99.1452 137.41 101.068" stroke="#263238" stroke-linecap="round" stroke-linejoin="round"/>
<path d="M114.707 100.28C117.92 98.357 121.729 99.5108 122.354 102.049" stroke="#263238" stroke-linecap="round" stroke-linejoin="round"/>
<path d="M133.165 107.655C133.115 108.779 132.649 109.674 132.123 109.654C131.597 109.635 131.211 108.693 131.25 107.578C131.29 106.462 131.766 105.549 132.292 105.568C132.817 105.587 133.165 106.51 133.165 107.655Z" fill="#263238"/>
<path d="M119.834 107.337C119.785 108.462 119.319 109.356 118.793 109.337C118.267 109.318 117.871 108.376 117.92 107.26C117.97 106.145 118.436 105.232 118.962 105.251C119.487 105.27 119.884 106.203 119.834 107.337Z" fill="#263238"/>
<path d="M143.133 107.529C143.133 107.529 144.194 108.087 146.723 105.953C149.252 103.818 151.405 99.6742 150.373 97.9435C149.342 96.2129 146.208 98.7223 146.208 98.7223L143.133 107.529Z" fill="white" stroke="#263238" stroke-miterlimit="10"/>
<path d="M104.857 96.3764C104.857 96.3764 102.17 94.8092 100.612 96.0591C98.8865 97.434 101.396 102.059 102.259 103.376C103.35 105.039 105.492 106.453 107.307 104.934L104.857 96.3764Z" fill="white" stroke="#263238" stroke-miterlimit="10"/>
<path d="M118.604 115.769C119.008 116.775 119.658 117.671 120.497 118.379C121.337 119.087 122.342 119.588 123.425 119.836" stroke="#263238" stroke-linecap="round" stroke-linejoin="round"/>
<path d="M136.785 118.163C135.228 121.538 135.307 124.509 136.23 128.095" stroke="#263238" stroke-linecap="round" stroke-linejoin="round"/>
<path d="M113.982 117.837C114.27 119.978 114.38 122.139 114.31 124.298C114.412 125.731 114.202 127.169 113.695 128.519" stroke="#263238" stroke-linecap="round" stroke-linejoin="round"/>
<path d="M103.667 94.6265C103.667 94.6265 118.347 94.0592 121.729 79.2909C121.729 79.2909 128.156 95.0207 146.882 96.3764C146.882 96.3764 150.225 85.1944 148.34 78.0218C146.456 70.8492 137.231 64.6476 124.853 65.6379C112.475 66.6283 102.249 70.9838 103.667 94.6265Z" fill="#263238"/>
<path d="M88.1152 194.265V202.293C88.1152 202.293 102.854 213.167 122.552 212.081L131.181 205.822C131.181 205.822 134.077 195.293 139.969 188.188C145.86 181.083 153.16 177.891 152.04 169.016C150.919 160.142 150.611 157.151 150.611 157.151" stroke="#263238" stroke-linecap="round" stroke-linejoin="round"/>
<path d="M113.982 125.923C113.982 125.923 105.552 129.086 96.9325 127.23C88.3134 125.375 82.3624 124.942 77.5023 129.653C72.6423 134.364 75.3004 159.459 71.1049 165.084C66.9094 170.708 58.935 182.015 61.365 191.428" stroke="#263238" stroke-linecap="round" stroke-linejoin="round"/>
<path d="M86.3895 195.947C88.7005 200.014 83.8901 203.639 80.4385 206.764C76.9868 209.889 67.1676 210.61 64.1326 210.071C61.0975 209.533 59.0146 199.235 59.58 195.928C60.1454 192.62 62.0497 189.496 64.8963 188.188C67.7429 186.88 69.8555 178.285 71.9483 177.112C74.0411 175.939 75.2908 179.756 75.2908 179.756" stroke="#263238" stroke-miterlimit="10"/>
<path d="M113.129 180.967L132.431 183.246C134.256 183.458 136.249 183.765 137.449 185.111" stroke="#263238" stroke-linecap="round" stroke-linejoin="round"/>
<path d="M91.0513 166.439C91.0513 166.439 92.2216 156.892 91.0513 152.44" stroke="#263238" stroke-linecap="round" stroke-linejoin="round"/>
<path d="M91.5669 162.959C93.6642 160.921 95.3763 158.542 96.6253 155.93" stroke="#263238" stroke-linecap="round" stroke-linejoin="round"/>
<path d="M163.109 166.459C161.818 166.255 160.603 165.733 159.583 164.94C158.562 164.148 157.77 163.114 157.283 161.938C156.796 160.761 156.631 159.483 156.803 158.227C156.976 156.97 157.481 155.779 158.268 154.767C159.26 153.44 160.758 152.469 161.72 151.094C162.279 150.276 162.637 149.344 162.766 148.37C162.895 147.396 162.792 146.407 162.464 145.478C162.136 144.549 161.593 143.705 160.876 143.012C160.159 142.319 159.287 141.794 158.328 141.479C160.233 141.321 162.15 141.34 164.051 141.537C167.959 142.085 170.329 144.729 169.506 148.71C168.683 152.69 163.872 153.219 161.016 155.44C160.277 155.947 159.677 156.623 159.271 157.408C158.864 158.192 158.663 159.062 158.685 159.94C158.756 161.31 159.203 162.637 159.981 163.783C160.759 164.929 161.839 165.853 163.109 166.459Z" fill="white" stroke="#263238" stroke-miterlimit="10"/>
<path d="M135.724 125.923C139.393 129.286 143.964 131.582 148.915 132.547C156.652 133.816 165.261 133.451 168.137 136.749C171.013 140.047 175.308 157.661 180.902 165.526C186.496 173.391 194.5 189.851 184.741 199.956C184.741 199.956 174.187 203.302 168.167 189.38" stroke="#263238" stroke-linecap="round" stroke-linejoin="round"/>
<path d="M148.915 155.171C148.915 155.171 155.045 162.074 157.623 169.016" stroke="#263238" stroke-linecap="round" stroke-linejoin="round"/>
<path d="M161.928 188.188C164.637 186.501 167.861 185.764 171.063 186.101C176.34 186.707 175.854 188.14 174.931 188.505C174.009 188.871 159.905 191.995 159.439 191.188C158.972 190.38 161.928 188.188 161.928 188.188Z" fill="white" stroke="#263238" stroke-miterlimit="10"/>
<path d="M111.215 126.826C111.662 131.355 115.55 134.71 118.972 137.835C121.81 140.281 124.266 143.115 126.262 146.248C131.429 154.959 130.288 165.756 128.989 175.727" stroke="#263238" stroke-linecap="round" stroke-linejoin="round"/>
<path d="M109.361 126.778C107.699 129.448 106.524 132.375 105.889 135.432C105.819 135.641 105.819 135.866 105.889 136.076C106.008 136.254 106.182 136.392 106.385 136.47L113.021 139.777C112.406 142.855 112.156 145.99 112.277 149.123C112.272 149.69 112.359 150.255 112.535 150.796C112.838 151.481 113.272 152.104 113.814 152.632C119.2 158.584 125.012 164.862 126.282 172.679" stroke="#263238" stroke-linecap="round" stroke-linejoin="round"/>
<path d="M146.842 131.97C145.459 132.744 144.205 133.716 143.123 134.855C137.363 140.471 132.803 147.133 129.703 154.459" stroke="#263238" stroke-linecap="round" stroke-linejoin="round"/>
<path d="M147.675 132.047C150.076 134.611 152.39 137.271 154.618 140.028C151.532 142.06 147.975 143.322 144.263 143.7C144.73 146.162 145.186 148.623 145.652 151.075C145.726 151.33 145.726 151.599 145.652 151.854C145.481 152.146 145.206 152.368 144.878 152.479C139.969 154.796 134.038 155.805 130.586 159.92" stroke="#263238" stroke-linecap="round" stroke-linejoin="round"/>
<path d="M121.729 79.291C121.729 79.291 122.591 98.3186 146.207 98.7224" stroke="#263238" stroke-linecap="round" stroke-linejoin="round"/>
<path d="M173.731 166.439C175.247 170.221 176.131 174.213 176.349 178.265C176.498 184.255 170.805 187.476 166.758 188.188C162.712 188.899 157.772 188.678 154.479 184.659C151.186 180.64 150.026 172.073 150.026 172.073L173.731 166.439Z" fill="white" stroke="#263238" stroke-miterlimit="10"/>
<path d="M179.087 165.055C178.3 165.094 177.53 165.291 176.826 165.632C173.169 167.125 169.66 168.937 166.342 171.045C166.044 171.237 165.707 171.478 165.677 171.824C165.677 172.362 166.302 172.66 166.848 172.785C170.031 173.362 173.305 172.679 176.459 171.997C177.38 171.84 178.277 171.569 179.127 171.189C181.765 169.881 183.521 165.113 179.087 165.055Z" fill="white" stroke="#263238" stroke-miterlimit="10"/>
<path d="M180.882 172.073C178.217 172.376 175.582 172.898 173.007 173.631C172.189 173.782 171.41 174.089 170.716 174.535C170.589 174.606 170.482 174.707 170.404 174.827C170.327 174.948 170.28 175.085 170.27 175.227C170.27 175.573 170.627 175.794 170.944 175.939C172.084 176.373 173.284 176.642 174.505 176.737C177.48 177.102 181.071 177.563 183.64 175.717C186.466 173.718 183.213 171.91 180.882 172.073Z" fill="white" stroke="#263238" stroke-miterlimit="10"/>
<path d="M173.126 178.381C172.245 178.375 171.377 178.591 170.607 179.006C170.368 179.133 170.174 179.327 170.051 179.563C169.966 179.815 169.968 180.087 170.056 180.339C170.143 180.59 170.312 180.807 170.537 180.958C170.992 181.246 171.507 181.434 172.045 181.506L177.411 182.63C178.522 182.861 179.861 183.034 180.555 181.957C180.788 181.582 180.912 181.151 180.912 180.712C180.912 180.274 180.788 179.843 180.555 179.467C179.236 177.9 174.931 178.265 173.126 178.381Z" fill="white" stroke="#263238" stroke-miterlimit="10"/>
<path d="M65.7688 187.457C64.1025 190.563 63.924 194.188 63.7852 197.668" stroke="#263238" stroke-linecap="round" stroke-linejoin="round"/>
<path d="M66.9492 189.524C66.9761 193.118 68.0899 196.624 70.1526 199.61C72.2153 202.596 75.1364 204.929 78.5538 206.321" stroke="#263238" stroke-linecap="round" stroke-linejoin="round"/>
<path d="M134.514 186.274C129.198 185.9 123.802 185.534 118.595 186.601" stroke="#263238" stroke-linecap="round" stroke-linejoin="round"/>
<path d="M121.888 140.662L102.467 141.374L106.306 175.727L124.417 174.602L121.888 140.662Z" fill="white" stroke="#263238" stroke-miterlimit="10"/>
<path d="M122.066 150.498L123.147 152.315L117.613 162.122C120.588 161.43 125.419 156.276 126.222 157.315C127.025 158.353 113.328 171.439 109.976 172.256C107.576 172.721 105.105 172.721 102.705 172.256C100.037 175.285 85.1299 198.995 85.1299 198.995C85.1299 198.995 69.9051 197.399 72.9104 181.208C72.9104 181.208 91.6761 166.382 97.1808 161.642C97.1808 161.642 99.3827 153.344 102.795 152.45L104.005 155.334C104.005 155.334 122.294 147.229 122.85 147.825C123.405 148.421 122.85 149.796 122.85 149.796C122.85 149.796 112.634 158.892 110.184 159.411" fill="white"/>
<path d="M122.066 150.498L123.147 152.315L117.613 162.122C120.588 161.43 125.419 156.276 126.222 157.315C127.025 158.353 113.328 171.439 109.976 172.256C107.576 172.721 105.105 172.721 102.705 172.256C100.037 175.285 85.1299 198.995 85.1299 198.995C85.1299 198.995 69.9051 197.399 72.9104 181.208C72.9104 181.208 91.6761 166.382 97.1808 161.642C97.1808 161.642 99.3827 153.084 102.795 152.45L104.005 155.334C104.005 155.334 122.294 147.229 122.85 147.825C123.405 148.421 122.85 149.796 122.85 149.796C122.85 149.796 112.634 158.892 110.184 159.411" stroke="#263238" stroke-miterlimit="10"/>
<path opacity="0.2" d="M122.493 75.6661C124.867 78.2748 127.528 80.6251 130.427 82.6752C131.736 83.5075 133.094 84.2651 134.494 84.9443C139.078 87.2057 143.861 89.0656 148.786 90.5017" stroke="white" stroke-width="0.75" stroke-linecap="round" stroke-linejoin="round"/>
<path opacity="0.2" d="M123.494 71.8106C130.418 75.8994 137.924 78.9802 145.771 80.9543" stroke="white" stroke-width="0.75" stroke-linecap="round" stroke-linejoin="round"/>
<path d="M114.707 118.798C114.707 118.798 117.504 130.941 123.891 132.047C130.278 133.153 135.367 120.029 135.367 120.029C135.367 120.029 129.029 127.249 125.032 127.192C121.035 127.134 114.707 118.798 114.707 118.798Z" fill="#263238"/>
<path d="M106.911 146.892C107.732 146.892 108.398 146.247 108.398 145.45C108.398 144.654 107.732 144.008 106.911 144.008C106.089 144.008 105.423 144.654 105.423 145.45C105.423 146.247 106.089 146.892 106.911 146.892Z" fill="white" stroke="#263238" stroke-miterlimit="10"/>
</svg>
