<svg width="1365" height="279" viewBox="0 0 1365 279" fill="none" xmlns="http://www.w3.org/2000/svg">
<g clip-path="url(#clip0_1_1485)">
<path d="M95.7988 0L0 75.4814V123.045L156.167 0H95.7988Z" fill="#C8FFD4"/>
<path d="M172.151 0L0 135.64V178.904L227.062 0H172.151Z" fill="#C8FFD4"/>
<path d="M327.58 0L0 258.104V279H52.8393L414.682 0H327.58Z" fill="#C8FFD4"/>
<path d="M1202.78 279L1365 153.919V78.9631L1105.57 279H1202.78Z" fill="#C8FFD4"/>
<path d="M433.5 0L71.6567 279H155.646L517.489 0H433.5Z" fill="#C8FFD4"/>
<path d="M243.046 0L0 191.498V245.509L311.596 0H243.046Z" fill="#C8FFD4"/>
<path d="M1329.32 279L1365 251.491V168.428L1221.6 279H1329.32Z" fill="#C8FFD4"/>
<path d="M1349.99 0L1353.87 8.27319L1002.76 279H1086.75L1365 64.4543V0H1349.99Z" fill="#C8FFD4"/>
<path d="M895.856 0L534.013 279H618.001L979.845 0H895.856Z" fill="#C8FFD4"/>
<path d="M0 0V62.8868L79.8145 0H0Z" fill="#C8FFD4"/>
<path d="M1114.69 0L752.849 279H860.576L1222.42 0H1114.69Z" fill="#C8FFD4"/>
<path d="M536.305 0L174.462 279H271.675L633.518 0H536.305Z" fill="#C8FFD4"/>
<path d="M1365 279V266L1348.14 279H1365Z" fill="#C8FFD4"/>
<path d="M1241.23 0L879.392 279H983.943L1345.79 0H1241.23Z" fill="#C8FFD4"/>
<path d="M652.335 0L290.492 279H398.219L760.062 0H652.335Z" fill="#C8FFD4"/>
<path d="M778.879 0L417.036 279H515.196L877.039 0H778.879Z" fill="#C8FFD4"/>
<path d="M998.661 0L636.818 279H734.031L1095.87 0H998.661Z" fill="#C8FFD4"/>
</g>
<defs>
<clipPath id="clip0_1_1485">
<rect width="1365" height="279" fill="white"/>
</clipPath>
</defs>
</svg>
