<svg width="581" height="584" viewBox="0 0 581 584" fill="none" xmlns="http://www.w3.org/2000/svg">
<path d="M255 442.5H177.5V101.487C177.5 89.5946 179.66 77.801 183.875 66.6805L185.928 61.265C195.432 36.1903 216.036 16.9469 241.701 9.1752C261.734 3.10885 282.702 0.731182 303.585 2.15795L324.266 3.571C342.996 4.85063 361.451 8.76079 379.09 15.1864L398.079 22.1039C414.292 28.0098 429.672 35.9889 443.836 45.8423L468.5 63L487.799 79.1697C499.561 89.0238 510.149 100.199 519.355 112.474L521.246 114.994C532.722 130.296 542.709 146.661 551.07 163.865L555.313 172.597C561.421 185.164 566.195 198.337 569.556 211.9L573.859 229.257C577.276 243.046 579.215 257.161 579.642 271.361L580.33 294.207C580.775 309.023 579.572 323.843 576.743 338.393L572.115 362.195C568.72 379.654 563.012 396.582 555.141 412.531L548 427L527.5 460L476.5 395L479.287 389.741C497.687 355.018 505.451 315.643 501.607 276.535L500.567 265.951C499.525 255.347 497.367 244.882 494.127 234.731C482.561 198.492 462.076 165.739 434.552 139.481L433 138L424.266 130.266C387.692 97.88 340.529 80 291.677 80H280C266.193 80 255 91.1929 255 105V442.5Z" fill="url(#paint0_angular_152_6)"/>
<path d="M132.5 153.5V51L89 87.5L68.7945 108.912C59.9522 118.282 52.036 128.485 45.1562 139.378L37.1451 152.062C25.4609 170.562 16.8917 190.854 11.7791 212.129L7.80708 228.658C5.27323 239.202 3.60114 249.934 2.80736 260.75L1.3074 281.187C0.437532 293.039 0.625743 304.945 1.8698 316.763L4 337L5.09415 344.781C7.35629 360.867 11.5698 376.618 17.6417 391.685L26.2309 412.999C32.3867 428.274 40.4058 442.731 50.106 456.041L63.9222 474.998C73.6038 488.282 84.8862 500.322 97.514 510.845L112.791 523.576C125.877 534.481 140.302 543.669 155.716 550.918L164.352 554.979C204.292 573.761 247.884 583.5 292.02 583.5H311.25C346.775 583.5 381.659 574.038 412.314 556.086L421 551L432.655 543.324C462.049 523.968 474.756 487.269 463.627 453.881C461.222 446.666 457.771 439.844 453.383 433.632L353 291.5L435 168H345L266.5 291.5L379.152 462.127C383.252 468.337 382.97 476.462 378.45 482.374C374.874 487.049 370.177 490.746 364.792 493.121L360.143 495.172C357.386 496.389 354.533 497.375 351.613 498.122L334.5 502.5C310.412 507.78 285.509 508.168 261.268 503.643L240.61 499.787C204.623 493.07 171.308 476.195 144.601 451.157L137.545 444.543C132.198 439.529 127.418 433.943 123.292 427.885L111.375 410.391C65.5126 343.061 65.072 254.642 110.261 186.858L132.5 153.5Z" fill="url(#paint1_linear_152_6)"/>
<defs>
<radialGradient id="paint0_angular_152_6" cx="0" cy="0" r="1" gradientUnits="userSpaceOnUse" gradientTransform="translate(379.25 233.75) rotate(90) scale(227.75 201.75)">
<stop stop-color="#005728"/>
<stop offset="1" stop-color="#054D2D" stop-opacity="0.75"/>
<stop offset="1" stop-color="#337953" stop-opacity="0.8"/>
</radialGradient>
<linearGradient id="paint1_linear_152_6" x1="242.25" y1="51" x2="242.25" y2="585" gradientUnits="userSpaceOnUse">
<stop stop-color="#005728"/>
<stop offset="1" stop-color="#337953" stop-opacity="0.8"/>
</linearGradient>
</defs>
</svg>
