<svg width="611" height="499" viewBox="0 0 611 499" fill="none" xmlns="http://www.w3.org/2000/svg">
<path d="M68.9771 99.7265C45.3608 131.34 30.1756 177.792 41.6918 216.698C61.3696 283.191 144.873 288.201 202.064 295.896C241.48 301.205 280.671 332.058 314.381 351.205C359.307 376.735 431.579 417.013 483.394 390.857C526.344 369.19 549.436 316.773 562.614 273.289C583.265 205.2 585.257 123.064 540.301 63.7434C479.111 -16.7824 372.066 -3.36141 283.127 10.4174C223.599 19.6481 165.734 28.6401 112.81 60.0601C95.7234 70.2853 80.8284 83.7644 68.9771 99.7265V99.7265Z" fill="#92E3A9"/>
<path opacity="0.4" d="M68.9771 99.7265C45.3608 131.34 30.1756 177.792 41.6918 216.698C61.3696 283.191 144.873 288.201 202.064 295.896C241.48 301.205 280.671 332.058 314.381 351.205C359.307 376.735 431.579 417.013 483.394 390.857C526.344 369.19 549.436 316.773 562.614 273.289C583.265 205.2 585.257 123.064 540.301 63.7434C479.111 -16.7824 372.066 -3.36141 283.127 10.4174C223.599 19.6481 165.734 28.6401 112.81 60.0601C95.7234 70.2853 80.8284 83.7644 68.9771 99.7265V99.7265Z" fill="white"/>
<path d="M0 479.629C0 484.938 136.741 489.247 305.5 489.247C474.259 489.247 611 484.938 611 479.629C611 474.32 474.259 470.011 305.575 470.011C136.891 470.011 0 474.32 0 479.629Z" fill="#92E3A9"/>
<path opacity="0.6" d="M0 479.629C0 484.938 136.741 489.247 305.5 489.247C474.259 489.247 611 484.938 611 479.629C611 474.32 474.259 470.011 305.575 470.011C136.891 470.011 0 474.32 0 479.629Z" fill="white"/>
<path d="M339.974 3.19995H68.6929V345.852H339.974V3.19995Z" fill="white" stroke="#263238" stroke-width="0.75" stroke-linecap="round" stroke-linejoin="round"/>
<path d="M339.974 3.19995H68.6929V23.6445H339.974V3.19995Z" fill="#263238" stroke="#263238" stroke-width="0.75" stroke-linecap="round" stroke-linejoin="round"/>
<path d="M122.275 242.183H76.4204V339.097H122.275V242.183Z" fill="#92E3A9"/>
<path opacity="0.6" d="M122.275 242.183H76.4204V339.097H122.275V242.183Z" fill="white"/>
<path d="M172.278 242.183H126.423V339.097H172.278V242.183Z" fill="#92E3A9"/>
<path opacity="0.6" d="M172.278 242.183H126.423V339.097H172.278V242.183Z" fill="white"/>
<path d="M225.411 242.183H179.556V339.097H225.411V242.183Z" fill="#92E3A9"/>
<path opacity="0.6" d="M225.411 242.183H179.556V339.097H225.411V242.183Z" fill="white"/>
<path d="M278.529 242.183H232.674V339.097H278.529V242.183Z" fill="#92E3A9"/>
<path opacity="0.6" d="M278.529 242.183H232.674V339.097H278.529V242.183Z" fill="white"/>
<path d="M332.95 242.183H287.095V339.097H332.95V242.183Z" fill="white" stroke="#263238" stroke-width="0.75" stroke-linecap="round" stroke-linejoin="round"/>
<path d="M332.216 11.2822H76.4351V34.7689H332.216V11.2822Z" fill="#92E3A9"/>
<path opacity="0.6" d="M332.216 11.2822H76.4351V34.7689H332.216V11.2822Z" fill="white"/>
<path d="M328.622 15.8455H81.0327V26.2392H328.622V15.8455Z" fill="white"/>
<path d="M328.607 15.8455H300.573V26.2392H328.607V15.8455Z" fill="#263238" stroke="#263238" stroke-width="0.75" stroke-linecap="round" stroke-linejoin="round"/>
<path d="M190.279 55.8251H137.864C137.328 55.8251 136.814 55.613 136.435 55.2355C136.056 54.858 135.843 54.3459 135.843 53.812C135.843 53.2781 136.056 52.766 136.435 52.3885C136.814 52.0109 137.328 51.7988 137.864 51.7988H190.279C190.815 51.7988 191.329 52.0109 191.708 52.3885C192.087 52.766 192.3 53.2781 192.3 53.812C192.3 54.3459 192.087 54.858 191.708 55.2355C191.329 55.613 190.815 55.8251 190.279 55.8251V55.8251Z" fill="#263238"/>
<path d="M190.279 69.8575H137.865C137.586 69.8814 137.305 69.8474 137.04 69.7575C136.774 69.6676 136.531 69.5238 136.324 69.3352C136.118 69.1466 135.953 68.9174 135.84 68.662C135.728 68.4066 135.669 68.1307 135.669 67.8518C135.669 67.5728 135.728 67.2969 135.84 67.0415C135.953 66.7861 136.118 66.5569 136.324 66.3683C136.531 66.1797 136.774 66.0359 137.04 65.946C137.305 65.8561 137.586 65.8221 137.865 65.8461H190.279C190.783 65.8894 191.253 66.1195 191.595 66.4908C191.937 66.8622 192.127 67.3478 192.127 67.8518C192.127 68.3557 191.937 68.8413 191.595 69.2127C191.253 69.5841 190.783 69.8141 190.279 69.8575Z" fill="#263238"/>
<path d="M190.279 83.9047H137.864C137.328 83.9047 136.814 83.6926 136.435 83.315C136.056 82.9375 135.843 82.4255 135.843 81.8915C135.843 81.3576 136.056 80.8456 136.435 80.468C136.814 80.0905 137.328 79.8784 137.864 79.8784H190.279C190.815 79.8784 191.329 80.0905 191.708 80.468C192.087 80.8456 192.3 81.3576 192.3 81.8915C192.3 82.4255 192.087 82.9375 191.708 83.315C191.329 83.6926 190.815 83.9047 190.279 83.9047Z" fill="#263238"/>
<path d="M190.279 97.9371H81.497C80.9928 97.8938 80.5232 97.6638 80.1811 97.2924C79.839 96.921 79.6492 96.4354 79.6492 95.9315C79.6492 95.4275 79.839 94.9419 80.1811 94.5705C80.5232 94.1992 80.9928 93.9691 81.497 93.9258H190.279C190.783 93.9691 191.253 94.1992 191.595 94.5705C191.937 94.9419 192.127 95.4275 192.127 95.9315C192.127 96.4354 191.937 96.921 191.595 97.2924C191.253 97.6638 190.783 97.8938 190.279 97.9371Z" fill="#263238"/>
<path d="M190.279 111.984H81.4965C80.9604 111.984 80.4461 111.772 80.067 111.395C79.6878 111.017 79.4749 110.505 79.4749 109.971C79.4749 109.437 79.6878 108.925 80.067 108.548C80.4461 108.17 80.9604 107.958 81.4965 107.958H190.279C190.815 107.958 191.329 108.17 191.708 108.548C192.087 108.925 192.3 109.437 192.3 109.971C192.3 110.505 192.087 111.017 191.708 111.395C191.329 111.772 190.815 111.984 190.279 111.984Z" fill="#263238"/>
<path d="M190.279 126.032H81.4965C80.9604 126.032 80.4461 125.82 80.067 125.442C79.6878 125.064 79.4749 124.552 79.4749 124.019C79.4749 123.485 79.6878 122.973 80.067 122.595C80.4461 122.217 80.9604 122.005 81.4965 122.005H190.279C190.815 122.005 191.329 122.217 191.708 122.595C192.087 122.973 192.3 123.485 192.3 124.019C192.3 124.552 192.087 125.064 191.708 125.442C191.329 125.82 190.815 126.032 190.279 126.032V126.032Z" fill="#263238"/>
<path d="M190.279 140.064H81.497C80.9928 140.021 80.5232 139.79 80.1811 139.419C79.839 139.048 79.6492 138.562 79.6492 138.058C79.6492 137.554 79.839 137.069 80.1811 136.697C80.5232 136.326 80.9928 136.096 81.497 136.052H190.279C190.783 136.096 191.253 136.326 191.595 136.697C191.937 137.069 192.127 137.554 192.127 138.058C192.127 138.562 191.937 139.048 191.595 139.419C191.253 139.79 190.783 140.021 190.279 140.064Z" fill="#263238"/>
<path d="M190.279 152.545H81.497C80.9928 152.502 80.5232 152.272 80.1811 151.901C79.839 151.529 79.6492 151.044 79.6492 150.54C79.6492 150.036 79.839 149.55 80.1811 149.179C80.5232 148.807 80.9928 148.577 81.497 148.534H190.279C190.783 148.577 191.253 148.807 191.595 149.179C191.937 149.55 192.127 150.036 192.127 150.54C192.127 151.044 191.937 151.529 191.595 151.901C191.253 152.272 190.783 152.502 190.279 152.545V152.545Z" fill="#263238"/>
<path d="M190.279 166.637H81.4965C80.9604 166.637 80.4461 166.425 80.067 166.048C79.6878 165.67 79.4749 165.158 79.4749 164.624C79.4749 164.09 79.6878 163.578 80.067 163.201C80.4461 162.823 80.9604 162.611 81.4965 162.611H190.279C190.815 162.611 191.329 162.823 191.708 163.201C192.087 163.578 192.3 164.09 192.3 164.624C192.3 165.158 192.087 165.67 191.708 166.048C191.329 166.425 190.815 166.637 190.279 166.637V166.637Z" fill="#263238"/>
<path d="M190.279 180.625H81.497C80.9928 180.582 80.5232 180.352 80.1811 179.98C79.839 179.609 79.6492 179.123 79.6492 178.619C79.6492 178.116 79.839 177.63 80.1811 177.259C80.5232 176.887 80.9928 176.657 81.497 176.614H190.279C190.783 176.657 191.253 176.887 191.595 177.259C191.937 177.63 192.127 178.116 192.127 178.619C192.127 179.123 191.937 179.609 191.595 179.98C191.253 180.352 190.783 180.582 190.279 180.625V180.625Z" fill="#263238"/>
<path d="M190.279 194.672H81.4965C80.9604 194.672 80.4461 194.46 80.067 194.083C79.6878 193.705 79.4749 193.193 79.4749 192.659C79.4749 192.125 79.6878 191.613 80.067 191.236C80.4461 190.858 80.9604 190.646 81.4965 190.646H190.279C190.815 190.646 191.329 190.858 191.708 191.236C192.087 191.613 192.3 192.125 192.3 192.659C192.3 193.193 192.087 193.705 191.708 194.083C191.329 194.46 190.815 194.672 190.279 194.672Z" fill="#263238"/>
<path d="M190.279 208.705H81.497C80.9928 208.661 80.5232 208.431 80.1811 208.06C79.839 207.689 79.6492 207.203 79.6492 206.699C79.6492 206.195 79.839 205.709 80.1811 205.338C80.5232 204.967 80.9928 204.737 81.497 204.693H190.279C190.783 204.737 191.253 204.967 191.595 205.338C191.937 205.709 192.127 206.195 192.127 206.699C192.127 207.203 191.937 207.689 191.595 208.06C191.253 208.431 190.783 208.661 190.279 208.705Z" fill="#263238"/>
<path d="M190.279 222.752H81.497C80.9928 222.709 80.5232 222.478 80.1811 222.107C79.839 221.736 79.6492 221.25 79.6492 220.746C79.6492 220.242 79.839 219.757 80.1811 219.385C80.5232 219.014 80.9928 218.784 81.497 218.74H190.279C190.783 218.784 191.253 219.014 191.595 219.385C191.937 219.757 192.127 220.242 192.127 220.746C192.127 221.25 191.937 221.736 191.595 222.107C191.253 222.478 190.783 222.709 190.279 222.752V222.752Z" fill="#263238"/>
<path d="M330.3 55.8251H221.563C221.027 55.8251 220.512 55.613 220.133 55.2355C219.754 54.858 219.541 54.3459 219.541 53.812C219.541 53.2781 219.754 52.766 220.133 52.3885C220.512 52.0109 221.027 51.7988 221.563 51.7988H330.3C330.836 51.7988 331.35 52.0109 331.729 52.3885C332.108 52.766 332.321 53.2781 332.321 53.812C332.321 54.3459 332.108 54.858 331.729 55.2355C331.35 55.613 330.836 55.8251 330.3 55.8251Z" fill="#263238"/>
<path d="M330.299 69.8575H221.562C221.283 69.8814 221.002 69.8474 220.737 69.7575C220.472 69.6676 220.228 69.5238 220.022 69.3352C219.815 69.1466 219.65 68.9174 219.538 68.662C219.425 68.4066 219.367 68.1307 219.367 67.8518C219.367 67.5728 219.425 67.2969 219.538 67.0415C219.65 66.7861 219.815 66.5569 220.022 66.3683C220.228 66.1797 220.472 66.0359 220.737 65.946C221.002 65.8561 221.283 65.8221 221.562 65.8461H330.299C330.578 65.8221 330.859 65.8561 331.125 65.946C331.39 66.0359 331.633 66.1797 331.84 66.3683C332.046 66.5569 332.211 66.7861 332.324 67.0415C332.437 67.2969 332.495 67.5728 332.495 67.8518C332.495 68.1307 332.437 68.4066 332.324 68.662C332.211 68.9174 332.046 69.1466 331.84 69.3352C331.633 69.5238 331.39 69.6676 331.125 69.7575C330.859 69.8474 330.578 69.8814 330.299 69.8575Z" fill="#263238"/>
<path d="M330.3 83.9047H221.563C221.027 83.9047 220.512 83.6926 220.133 83.315C219.754 82.9375 219.541 82.4255 219.541 81.8915C219.541 81.3576 219.754 80.8456 220.133 80.468C220.512 80.0905 221.027 79.8784 221.563 79.8784H330.3C330.836 79.8784 331.35 80.0905 331.729 80.468C332.108 80.8456 332.321 81.3576 332.321 81.8915C332.321 82.4255 332.108 82.9375 331.729 83.315C331.35 83.6926 330.836 83.9047 330.3 83.9047Z" fill="#263238"/>
<path d="M330.299 97.937H221.562C221.283 97.961 221.002 97.927 220.737 97.8371C220.472 97.7472 220.228 97.6034 220.022 97.4148C219.815 97.2262 219.65 96.997 219.538 96.7416C219.425 96.4862 219.367 96.2103 219.367 95.9314C219.367 95.6524 219.425 95.3765 219.538 95.1211C219.65 94.8657 219.815 94.6365 220.022 94.4479C220.228 94.2593 220.472 94.1155 220.737 94.0256C221.002 93.9357 221.283 93.9017 221.562 93.9257H330.299C330.578 93.9017 330.859 93.9357 331.125 94.0256C331.39 94.1155 331.633 94.2593 331.84 94.4479C332.046 94.6365 332.211 94.8657 332.324 95.1211C332.437 95.3765 332.495 95.6524 332.495 95.9314C332.495 96.2103 332.437 96.4862 332.324 96.7416C332.211 96.997 332.046 97.2262 331.84 97.4148C331.633 97.6034 331.39 97.7472 331.125 97.8371C330.859 97.927 330.578 97.961 330.299 97.937V97.937Z" fill="#263238"/>
<path d="M330.3 111.984H221.563C221.027 111.984 220.512 111.772 220.133 111.395C219.754 111.017 219.541 110.505 219.541 109.971C219.541 109.437 219.754 108.925 220.133 108.548C220.512 108.17 221.027 107.958 221.563 107.958H330.3C330.836 107.958 331.35 108.17 331.729 108.548C332.108 108.925 332.321 109.437 332.321 109.971C332.321 110.505 332.108 111.017 331.729 111.395C331.35 111.772 330.836 111.984 330.3 111.984Z" fill="#263238"/>
<path d="M330.3 126.032H221.563C221.297 126.032 221.034 125.98 220.789 125.878C220.544 125.777 220.321 125.629 220.133 125.442C219.945 125.255 219.797 125.033 219.695 124.789C219.593 124.545 219.541 124.283 219.541 124.019C219.541 123.754 219.593 123.492 219.695 123.248C219.797 123.004 219.945 122.782 220.133 122.595C220.321 122.408 220.544 122.26 220.789 122.159C221.034 122.057 221.297 122.005 221.563 122.005H330.3C330.565 122.005 330.828 122.057 331.073 122.159C331.319 122.26 331.542 122.408 331.729 122.595C331.917 122.782 332.066 123.004 332.168 123.248C332.269 123.492 332.321 123.754 332.321 124.019C332.321 124.283 332.269 124.545 332.168 124.789C332.066 125.033 331.917 125.255 331.729 125.442C331.542 125.629 331.319 125.777 331.073 125.878C330.828 125.98 330.565 126.032 330.3 126.032V126.032Z" fill="#263238"/>
<path d="M330.299 140.064H221.562C221.283 140.088 221.002 140.054 220.737 139.964C220.472 139.874 220.228 139.73 220.022 139.542C219.815 139.353 219.65 139.124 219.538 138.869C219.425 138.613 219.367 138.337 219.367 138.058C219.367 137.779 219.425 137.503 219.538 137.248C219.65 136.993 219.815 136.763 220.022 136.575C220.228 136.386 220.472 136.242 220.737 136.153C221.002 136.063 221.283 136.029 221.562 136.053H330.299C330.578 136.029 330.859 136.063 331.125 136.153C331.39 136.242 331.633 136.386 331.84 136.575C332.046 136.763 332.211 136.993 332.324 137.248C332.437 137.503 332.495 137.779 332.495 138.058C332.495 138.337 332.437 138.613 332.324 138.869C332.211 139.124 332.046 139.353 331.84 139.542C331.633 139.73 331.39 139.874 331.125 139.964C330.859 140.054 330.578 140.088 330.299 140.064V140.064Z" fill="#263238"/>
<path d="M332.262 149.503H221.443V226.465H332.262V149.503Z" fill="#92E3A9"/>
<path opacity="0.6" d="M332.262 149.503H221.443V226.465H332.262V149.503Z" fill="white"/>
<path d="M119.415 59.8065C119.722 58.8723 119.883 57.8966 119.894 56.9136C119.894 53.3197 116.24 53.111 112.631 53.111H111.732V52.261H127.382V53.111C123.308 53.111 121.871 55.6908 120.553 59.553L112.226 84.3967C111.597 86.2309 111.073 87.6028 109.111 87.6028H108.947L101.594 63.8776L94.705 84.3967C94.0611 86.2309 93.5369 87.6028 91.5751 87.6028H91.4404L80.7479 53.111H76.989V52.261H90.7515V53.111H86.8429L94.7799 80.3257H95.0944L101.085 62.1776L98.2842 53.111H94.5253V52.261H108.288V53.111H104.364L112.316 80.3257H112.631L119.415 59.8065Z" fill="#263238"/>
<path d="M370.988 43.4629H258.043V345.151H370.988V43.4629Z" fill="#92E3A9"/>
<path opacity="0.4" d="M370.988 43.4629H258.043V345.151H370.988V43.4629Z" fill="white"/>
<path d="M537.77 32.1743H266.489V374.826H537.77V32.1743Z" fill="white" stroke="#263238" stroke-width="0.75" stroke-linecap="round" stroke-linejoin="round"/>
<path d="M537.77 32.1743H266.489V52.6189H537.77V32.1743Z" fill="#263238" stroke="#263238" stroke-width="0.75" stroke-linecap="round" stroke-linejoin="round"/>
<path d="M453.129 80.6985H357.87V258.019H453.129V80.6985Z" fill="#92E3A9"/>
<path opacity="0.6" d="M453.129 80.6985H357.87V258.019H453.129V80.6985Z" fill="white"/>
<path d="M530.027 271.142H274.246V368.056H530.027V271.142Z" fill="#92E3A9"/>
<path opacity="0.6" d="M530.027 271.142H274.246V368.056H530.027V271.142Z" fill="white"/>
<path d="M530.027 40.2568H274.246V63.7435H530.027V40.2568Z" fill="#92E3A9"/>
<path opacity="0.6" d="M530.027 40.2568H274.246V63.7435H530.027V40.2568Z" fill="white"/>
<path d="M526.434 44.8198H278.844V55.2136H526.434V44.8198Z" fill="white"/>
<path d="M526.418 44.8198H498.384V55.2136H526.418V44.8198Z" fill="#263238" stroke="#263238" stroke-width="0.75" stroke-linecap="round" stroke-linejoin="round"/>
<path d="M341.86 84.7845H276.582C276.303 84.8084 276.022 84.7744 275.757 84.6845C275.492 84.5946 275.248 84.4508 275.042 84.2622C274.835 84.0736 274.67 83.8444 274.558 83.589C274.445 83.3337 274.387 83.0577 274.387 82.7788C274.387 82.4998 274.445 82.2239 274.558 81.9685C274.67 81.7131 274.835 81.4839 275.042 81.2953C275.248 81.1068 275.492 80.9629 275.757 80.873C276.022 80.7831 276.303 80.7491 276.582 80.7731H341.86C342.14 80.7491 342.421 80.7831 342.686 80.873C342.951 80.9629 343.195 81.1068 343.401 81.2953C343.607 81.4839 343.772 81.7131 343.885 81.9685C343.998 82.2239 344.056 82.4998 344.056 82.7788C344.056 83.0577 343.998 83.3337 343.885 83.589C343.772 83.8444 343.607 84.0736 343.401 84.2622C343.195 84.4508 342.951 84.5946 342.686 84.6845C342.421 84.7744 342.14 84.8084 341.86 84.7845V84.7845Z" fill="#263238"/>
<path d="M341.861 98.8317H276.583C276.047 98.8317 275.532 98.6196 275.153 98.2421C274.774 97.8645 274.561 97.3525 274.561 96.8186C274.561 96.2846 274.774 95.7726 275.153 95.395C275.532 95.0175 276.047 94.8054 276.583 94.8054H341.861C342.397 94.8054 342.911 95.0175 343.29 95.395C343.67 95.7726 343.883 96.2846 343.883 96.8186C343.883 97.3525 343.67 97.8645 343.29 98.2421C342.911 98.6196 342.397 98.8317 341.861 98.8317V98.8317Z" fill="#263238"/>
<path d="M341.86 112.864H276.582C276.303 112.888 276.022 112.854 275.757 112.764C275.492 112.674 275.248 112.53 275.042 112.342C274.835 112.153 274.67 111.924 274.558 111.669C274.445 111.413 274.387 111.137 274.387 110.858C274.387 110.579 274.445 110.303 274.558 110.048C274.67 109.793 274.835 109.563 275.042 109.375C275.248 109.186 275.492 109.043 275.757 108.953C276.022 108.863 276.303 108.829 276.582 108.853H341.86C342.14 108.829 342.421 108.863 342.686 108.953C342.951 109.043 343.195 109.186 343.401 109.375C343.607 109.563 343.772 109.793 343.885 110.048C343.998 110.303 344.056 110.579 344.056 110.858C344.056 111.137 343.998 111.413 343.885 111.669C343.772 111.924 343.607 112.153 343.401 112.342C343.195 112.53 342.951 112.674 342.686 112.764C342.421 112.854 342.14 112.888 341.86 112.864V112.864Z" fill="#263238"/>
<path d="M341.861 126.911H276.583C276.317 126.911 276.054 126.859 275.809 126.758C275.564 126.657 275.341 126.509 275.153 126.322C274.965 126.135 274.817 125.913 274.715 125.669C274.613 125.424 274.561 125.163 274.561 124.898C274.561 124.634 274.613 124.372 274.715 124.128C274.817 123.884 274.965 123.662 275.153 123.475C275.341 123.288 275.564 123.139 275.809 123.038C276.054 122.937 276.317 122.885 276.583 122.885H341.861C342.397 122.885 342.911 123.097 343.29 123.475C343.67 123.852 343.883 124.364 343.883 124.898C343.883 125.432 343.67 125.944 343.29 126.322C342.911 126.699 342.397 126.911 341.861 126.911V126.911Z" fill="#263238"/>
<path d="M341.86 140.944H276.582C276.303 140.968 276.022 140.934 275.757 140.844C275.492 140.754 275.248 140.61 275.042 140.421C274.835 140.233 274.67 140.004 274.558 139.748C274.445 139.493 274.387 139.217 274.387 138.938C274.387 138.659 274.445 138.383 274.558 138.128C274.67 137.872 274.835 137.643 275.042 137.454C275.248 137.266 275.492 137.122 275.757 137.032C276.022 136.942 276.303 136.908 276.582 136.932H341.86C342.14 136.908 342.421 136.942 342.686 137.032C342.951 137.122 343.195 137.266 343.401 137.454C343.607 137.643 343.772 137.872 343.885 138.128C343.998 138.383 344.056 138.659 344.056 138.938C344.056 139.217 343.998 139.493 343.885 139.748C343.772 140.004 343.607 140.233 343.401 140.421C343.195 140.61 342.951 140.754 342.686 140.844C342.421 140.934 342.14 140.968 341.86 140.944V140.944Z" fill="#263238"/>
<path d="M341.86 154.991H276.582C276.303 155.015 276.022 154.981 275.757 154.891C275.492 154.801 275.248 154.657 275.042 154.469C274.835 154.28 274.67 154.051 274.558 153.796C274.445 153.54 274.387 153.264 274.387 152.985C274.387 152.706 274.445 152.43 274.558 152.175C274.67 151.92 274.835 151.69 275.042 151.502C275.248 151.313 275.492 151.169 275.757 151.08C276.022 150.99 276.303 150.956 276.582 150.98H341.86C342.14 150.956 342.421 150.99 342.686 151.08C342.951 151.169 343.195 151.313 343.401 151.502C343.607 151.69 343.772 151.92 343.885 152.175C343.998 152.43 344.056 152.706 344.056 152.985C344.056 153.264 343.998 153.54 343.885 153.796C343.772 154.051 343.607 154.28 343.401 154.469C343.195 154.657 342.951 154.801 342.686 154.891C342.421 154.981 342.14 155.015 341.86 154.991V154.991Z" fill="#263238"/>
<path d="M341.861 169.038H276.583C276.317 169.038 276.054 168.986 275.809 168.885C275.564 168.784 275.341 168.636 275.153 168.449C274.965 168.262 274.817 168.04 274.715 167.796C274.613 167.551 274.561 167.289 274.561 167.025C274.561 166.761 274.613 166.499 274.715 166.255C274.817 166.01 274.965 165.789 275.153 165.602C275.341 165.415 275.564 165.266 275.809 165.165C276.054 165.064 276.317 165.012 276.583 165.012H341.861C342.397 165.012 342.911 165.224 343.29 165.602C343.67 165.979 343.883 166.491 343.883 167.025C343.883 167.559 343.67 168.071 343.29 168.449C342.911 168.826 342.397 169.038 341.861 169.038V169.038Z" fill="#263238"/>
<path d="M341.861 181.549H276.583C276.047 181.549 275.532 181.337 275.153 180.96C274.774 180.582 274.561 180.07 274.561 179.536C274.561 179.002 274.774 178.49 275.153 178.113C275.532 177.735 276.047 177.523 276.583 177.523H341.861C342.397 177.523 342.911 177.735 343.29 178.113C343.67 178.49 343.883 179.002 343.883 179.536C343.883 180.07 343.67 180.582 343.29 180.96C342.911 181.337 342.397 181.549 341.861 181.549Z" fill="#263238"/>
<path d="M341.86 195.552H276.582C276.303 195.576 276.022 195.542 275.757 195.452C275.492 195.362 275.248 195.218 275.042 195.03C274.835 194.841 274.67 194.612 274.558 194.357C274.445 194.101 274.387 193.825 274.387 193.546C274.387 193.267 274.445 192.991 274.558 192.736C274.67 192.481 274.835 192.251 275.042 192.063C275.248 191.874 275.492 191.731 275.757 191.641C276.022 191.551 276.303 191.517 276.582 191.541H341.86C342.14 191.517 342.421 191.551 342.686 191.641C342.951 191.731 343.195 191.874 343.401 192.063C343.607 192.251 343.772 192.481 343.885 192.736C343.998 192.991 344.056 193.267 344.056 193.546C344.056 193.825 343.998 194.101 343.885 194.357C343.772 194.612 343.607 194.841 343.401 195.03C343.195 195.218 342.951 195.362 342.686 195.452C342.421 195.542 342.14 195.576 341.86 195.552V195.552Z" fill="#263238"/>
<path d="M341.861 209.599H276.583C276.047 209.599 275.532 209.387 275.153 209.01C274.774 208.632 274.561 208.12 274.561 207.586C274.561 207.052 274.774 206.54 275.153 206.163C275.532 205.785 276.047 205.573 276.583 205.573H341.861C342.397 205.573 342.911 205.785 343.29 206.163C343.67 206.54 343.883 207.052 343.883 207.586C343.883 208.12 343.67 208.632 343.29 209.01C342.911 209.387 342.397 209.599 341.861 209.599Z" fill="#263238"/>
<path d="M341.86 223.632H276.582C276.303 223.656 276.022 223.622 275.757 223.532C275.492 223.442 275.248 223.298 275.042 223.109C274.835 222.921 274.67 222.692 274.558 222.436C274.445 222.181 274.387 221.905 274.387 221.626C274.387 221.347 274.445 221.071 274.558 220.816C274.67 220.56 274.835 220.331 275.042 220.143C275.248 219.954 275.492 219.81 275.757 219.72C276.022 219.63 276.303 219.596 276.582 219.62H341.86C342.14 219.596 342.421 219.63 342.686 219.72C342.951 219.81 343.195 219.954 343.401 220.143C343.607 220.331 343.772 220.56 343.885 220.816C343.998 221.071 344.056 221.347 344.056 221.626C344.056 221.905 343.998 222.181 343.885 222.436C343.772 222.692 343.607 222.921 343.401 223.109C343.195 223.298 342.951 223.442 342.686 223.532C342.421 223.622 342.14 223.656 341.86 223.632Z" fill="#263238"/>
<path d="M341.861 237.679H276.583C276.047 237.679 275.532 237.467 275.153 237.089C274.774 236.712 274.561 236.2 274.561 235.666C274.561 235.132 274.774 234.62 275.153 234.242C275.532 233.865 276.047 233.653 276.583 233.653H341.861C342.397 233.653 342.911 233.865 343.29 234.242C343.67 234.62 343.883 235.132 343.883 235.666C343.883 236.2 343.67 236.712 343.29 237.089C342.911 237.467 342.397 237.679 341.861 237.679Z" fill="#263238"/>
<path d="M341.86 251.711H276.582C276.303 251.735 276.022 251.701 275.757 251.612C275.492 251.522 275.248 251.378 275.042 251.189C274.835 251.001 274.67 250.771 274.558 250.516C274.445 250.261 274.387 249.985 274.387 249.706C274.387 249.427 274.445 249.151 274.558 248.896C274.67 248.64 274.835 248.411 275.042 248.222C275.248 248.034 275.492 247.89 275.757 247.8C276.022 247.71 276.303 247.676 276.582 247.7H341.86C342.14 247.676 342.421 247.71 342.686 247.8C342.951 247.89 343.195 248.034 343.401 248.222C343.607 248.411 343.772 248.64 343.885 248.896C343.998 249.151 344.056 249.427 344.056 249.706C344.056 249.985 343.998 250.261 343.885 250.516C343.772 250.771 343.607 251.001 343.401 251.189C343.195 251.378 342.951 251.522 342.686 251.612C342.421 251.701 342.14 251.735 341.86 251.711V251.711Z" fill="#263238"/>
<path d="M341.86 265.759H276.582C276.303 265.783 276.022 265.749 275.757 265.659C275.492 265.569 275.248 265.425 275.042 265.236C274.835 265.048 274.67 264.818 274.558 264.563C274.445 264.308 274.387 264.032 274.387 263.753C274.387 263.474 274.445 263.198 274.558 262.943C274.67 262.687 274.835 262.458 275.042 262.269C275.248 262.081 275.492 261.937 275.757 261.847C276.022 261.757 276.303 261.723 276.582 261.747H341.86C342.14 261.723 342.421 261.757 342.686 261.847C342.951 261.937 343.195 262.081 343.401 262.269C343.607 262.458 343.772 262.687 343.885 262.943C343.998 263.198 344.056 263.474 344.056 263.753C344.056 264.032 343.998 264.308 343.885 264.563C343.772 264.818 343.607 265.048 343.401 265.236C343.195 265.425 342.951 265.569 342.686 265.659C342.421 265.749 342.14 265.783 341.86 265.759V265.759Z" fill="#263238"/>
<path d="M529.534 84.7845H464.33C464.051 84.8084 463.77 84.7744 463.505 84.6845C463.24 84.5946 462.996 84.4508 462.79 84.2622C462.583 84.0736 462.419 83.8444 462.306 83.589C462.193 83.3337 462.135 83.0577 462.135 82.7788C462.135 82.4998 462.193 82.2239 462.306 81.9685C462.419 81.7131 462.583 81.4839 462.79 81.2953C462.996 81.1068 463.24 80.9629 463.505 80.873C463.77 80.7831 464.051 80.7491 464.33 80.7731H529.608C529.888 80.7491 530.169 80.7831 530.434 80.873C530.699 80.9629 530.943 81.1068 531.149 81.2953C531.355 81.4839 531.52 81.7131 531.633 81.9685C531.746 82.2239 531.804 82.4998 531.804 82.7788C531.804 83.0577 531.746 83.3337 531.633 83.589C531.52 83.8444 531.355 84.0736 531.149 84.2622C530.943 84.4508 530.699 84.5946 530.434 84.6845C530.169 84.7744 529.888 84.8084 529.608 84.7845H529.534Z" fill="#263238"/>
<path d="M529.533 98.8317H464.33C464.064 98.8317 463.801 98.7796 463.556 98.6785C463.311 98.5773 463.088 98.429 462.9 98.2421C462.713 98.0551 462.564 97.8332 462.462 97.589C462.36 97.3447 462.308 97.0829 462.308 96.8186C462.308 96.5542 462.36 96.2924 462.462 96.0482C462.564 95.8039 462.713 95.582 462.9 95.395C463.088 95.2081 463.311 95.0598 463.556 94.9587C463.801 94.8575 464.064 94.8054 464.33 94.8054H529.608C530.144 94.8054 530.658 95.0175 531.038 95.395C531.417 95.7726 531.63 96.2846 531.63 96.8186C531.63 97.3525 531.417 97.8645 531.038 98.2421C530.658 98.6196 530.144 98.8317 529.608 98.8317H529.533Z" fill="#263238"/>
<path d="M529.534 112.864H464.33C464.051 112.888 463.77 112.854 463.505 112.764C463.24 112.674 462.996 112.53 462.79 112.342C462.583 112.153 462.419 111.924 462.306 111.669C462.193 111.413 462.135 111.137 462.135 110.858C462.135 110.579 462.193 110.303 462.306 110.048C462.419 109.793 462.583 109.563 462.79 109.375C462.996 109.186 463.24 109.043 463.505 108.953C463.77 108.863 464.051 108.829 464.33 108.853H529.608C529.888 108.829 530.169 108.863 530.434 108.953C530.699 109.043 530.943 109.186 531.149 109.375C531.355 109.563 531.52 109.793 531.633 110.048C531.746 110.303 531.804 110.579 531.804 110.858C531.804 111.137 531.746 111.413 531.633 111.669C531.52 111.924 531.355 112.153 531.149 112.342C530.943 112.53 530.699 112.674 530.434 112.764C530.169 112.854 529.888 112.888 529.608 112.864H529.534Z" fill="#263238"/>
<path d="M529.533 126.911H464.33C464.064 126.911 463.801 126.859 463.556 126.758C463.311 126.657 463.088 126.509 462.9 126.322C462.713 126.135 462.564 125.913 462.462 125.669C462.36 125.424 462.308 125.163 462.308 124.898C462.308 124.634 462.36 124.372 462.462 124.128C462.564 123.884 462.713 123.662 462.9 123.475C463.088 123.288 463.311 123.139 463.556 123.038C463.801 122.937 464.064 122.885 464.33 122.885H529.608C530.144 122.885 530.658 123.097 531.038 123.475C531.417 123.852 531.63 124.364 531.63 124.898C531.63 125.432 531.417 125.944 531.038 126.322C530.658 126.699 530.144 126.911 529.608 126.911H529.533Z" fill="#263238"/>
<path d="M529.534 140.944H464.33C464.051 140.968 463.77 140.934 463.505 140.844C463.24 140.754 462.996 140.61 462.79 140.421C462.583 140.233 462.419 140.004 462.306 139.748C462.193 139.493 462.135 139.217 462.135 138.938C462.135 138.659 462.193 138.383 462.306 138.128C462.419 137.872 462.583 137.643 462.79 137.454C462.996 137.266 463.24 137.122 463.505 137.032C463.77 136.942 464.051 136.908 464.33 136.932H529.608C529.888 136.908 530.169 136.942 530.434 137.032C530.699 137.122 530.943 137.266 531.149 137.454C531.355 137.643 531.52 137.872 531.633 138.128C531.746 138.383 531.804 138.659 531.804 138.938C531.804 139.217 531.746 139.493 531.633 139.748C531.52 140.004 531.355 140.233 531.149 140.421C530.943 140.61 530.699 140.754 530.434 140.844C530.169 140.934 529.888 140.968 529.608 140.944H529.534Z" fill="#263238"/>
<path d="M529.534 154.991H464.33C464.051 155.015 463.77 154.981 463.505 154.891C463.24 154.801 462.996 154.657 462.79 154.469C462.583 154.28 462.419 154.051 462.306 153.796C462.193 153.54 462.135 153.264 462.135 152.985C462.135 152.706 462.193 152.43 462.306 152.175C462.419 151.92 462.583 151.69 462.79 151.502C462.996 151.313 463.24 151.169 463.505 151.08C463.77 150.99 464.051 150.956 464.33 150.98H529.608C529.888 150.956 530.169 150.99 530.434 151.08C530.699 151.169 530.943 151.313 531.149 151.502C531.355 151.69 531.52 151.92 531.633 152.175C531.746 152.43 531.804 152.706 531.804 152.985C531.804 153.264 531.746 153.54 531.633 153.796C531.52 154.051 531.355 154.28 531.149 154.469C530.943 154.657 530.699 154.801 530.434 154.891C530.169 154.981 529.888 155.015 529.608 154.991H529.534Z" fill="#263238"/>
<path d="M529.533 169.038H464.33C464.064 169.038 463.801 168.986 463.556 168.885C463.311 168.784 463.088 168.636 462.9 168.449C462.713 168.262 462.564 168.04 462.462 167.796C462.36 167.551 462.308 167.289 462.308 167.025C462.308 166.761 462.36 166.499 462.462 166.255C462.564 166.01 462.713 165.789 462.9 165.602C463.088 165.415 463.311 165.266 463.556 165.165C463.801 165.064 464.064 165.012 464.33 165.012H529.608C530.144 165.012 530.658 165.224 531.038 165.602C531.417 165.979 531.63 166.491 531.63 167.025C531.63 167.559 531.417 168.071 531.038 168.449C530.658 168.826 530.144 169.038 529.608 169.038H529.533Z" fill="#263238"/>
<path d="M530.072 178.463H462.698V255.424H530.072V178.463Z" fill="#92E3A9"/>
<path opacity="0.6" d="M530.072 178.463H462.698V255.424H530.072V178.463Z" fill="white"/>
<path d="M563.662 317.832C563.258 302.681 564.441 276.824 551.083 266.176C539.357 256.826 530.237 269.517 526.958 279.746C518.976 304.575 519.829 398.015 521.896 416.834C521.896 416.834 519.859 397.985 504.989 406.067C490.118 414.15 512.476 456.575 512.476 456.575C512.476 456.575 494.895 443.78 486.778 454.547C478.662 465.313 496.932 477.452 496.932 477.452C496.932 477.452 480.024 472.74 480.024 477.452C480.024 482.164 485.431 486.205 500.99 488.234H584.853C584.853 488.234 598.331 480.777 595.68 472.74C593.029 464.702 578.713 469.355 578.713 469.355C578.713 469.355 600.352 443.094 598.99 431.642C597.627 420.189 569.907 433.655 569.907 433.655C569.907 433.655 591.562 379.106 587.503 354.859C584.299 335.756 569.413 348.894 561.311 356.171C563.216 343.484 564.003 330.656 563.662 317.832V317.832Z" fill="#92E3A9"/>
<path opacity="0.1" d="M563.662 317.832C563.258 302.681 564.441 276.824 551.083 266.176C539.357 256.826 530.237 269.517 526.958 279.746C518.976 304.575 519.829 398.015 521.896 416.834C521.896 416.834 519.859 397.985 504.989 406.067C490.118 414.15 512.476 456.575 512.476 456.575C512.476 456.575 494.895 443.78 486.778 454.547C478.662 465.313 496.932 477.452 496.932 477.452C496.932 477.452 480.024 472.74 480.024 477.452C480.024 482.164 485.431 486.205 500.99 488.234H584.853C584.853 488.234 598.331 480.777 595.68 472.74C593.029 464.702 578.713 469.355 578.713 469.355C578.713 469.355 600.352 443.094 598.99 431.642C597.627 420.189 569.907 433.655 569.907 433.655C569.907 433.655 591.562 379.106 587.503 354.859C584.299 335.756 569.413 348.894 561.311 356.171C563.216 343.484 564.003 330.656 563.662 317.832V317.832Z" fill="black"/>
<path d="M536.692 486.429L542.862 302.338" stroke="#92E3A9" stroke-width="1.72695" stroke-linecap="round" stroke-linejoin="round"/>
<path d="M540.151 410.109L571.944 380.463" stroke="#92E3A9" stroke-width="1.72695" stroke-linecap="round" stroke-linejoin="round"/>
<path d="M555.037 396.628L561.791 377.779" stroke="#92E3A9" stroke-width="1.72695" stroke-linecap="round" stroke-linejoin="round"/>
<path d="M513.78 432.999L537.666 458.364" stroke="#92E3A9" stroke-width="1.72695" stroke-linecap="round" stroke-linejoin="round"/>
<path d="M578.713 447.822L538.13 468.699" stroke="#92E3A9" stroke-width="1.72695" stroke-linecap="round" stroke-linejoin="round"/>
<path d="M558.256 458.111L571.944 459.274" stroke="#92E3A9" stroke-width="1.72695" stroke-linecap="round" stroke-linejoin="round"/>
<path d="M258.552 488.949C258.552 494.497 205.464 499 139.991 499C74.5181 499 21.415 494.526 21.415 488.949C21.415 483.372 74.5032 478.898 139.991 478.898C205.479 478.898 258.552 483.402 258.552 488.949Z" fill="#263238"/>
<path d="M80.9577 304.351C80.9577 304.351 90.1227 299.729 94.1062 303.695C98.0897 307.662 96.4873 350.102 97.6854 363.583C98.4111 371.623 99.9003 379.577 102.133 387.338C102.133 387.338 88.9846 384.967 79.0259 379.882C79.0259 379.882 70.2652 337.531 80.9577 304.351Z" fill="#263238" stroke="#263238" stroke-width="0.75" stroke-linecap="round" stroke-linejoin="round"/>
<path d="M263.434 400.46C262.356 400.459 261.31 400.095 260.467 399.428C259.623 398.76 259.03 397.828 258.786 396.783C258.541 395.738 258.659 394.641 259.119 393.671C259.58 392.7 260.356 391.914 261.322 391.438L304.616 372.053L338.221 333.564C339.038 332.599 340.205 331.997 341.468 331.889C342.73 331.781 343.984 332.177 344.953 332.99C345.922 333.803 346.527 334.966 346.635 336.223C346.743 337.48 346.346 338.728 345.53 339.693L311.281 378.942C310.87 379.443 310.361 379.855 309.783 380.15L265.575 399.968C264.912 400.303 264.177 400.472 263.434 400.46Z" fill="white" stroke="#263238" stroke-width="0.75" stroke-linecap="round" stroke-linejoin="round"/>
<path d="M293.041 383.654L297.788 381.507" stroke="#263238" stroke-width="0.75" stroke-linecap="round" stroke-linejoin="round"/>
<path d="M271.146 393.571L289.911 385.071" stroke="#263238" stroke-width="0.75" stroke-linecap="round" stroke-linejoin="round"/>
<path d="M335.317 346.135L322.812 360.212" stroke="#263238" stroke-width="0.75" stroke-linecap="round" stroke-linejoin="round"/>
<path d="M320.79 362.226L317.96 365.432" stroke="#263238" stroke-width="0.75" stroke-linecap="round" stroke-linejoin="round"/>
<path d="M269.2 417.559C274.496 395.318 260.683 373.013 238.348 367.74C216.013 362.466 193.614 376.221 188.318 398.461C183.022 420.702 196.835 443.006 219.17 448.28C241.504 453.554 263.904 439.799 269.2 417.559Z" fill="#92E3A9" stroke="#263238" stroke-width="0.747671" stroke-linecap="round" stroke-linejoin="round"/>
<path d="M124.881 254.828C124.881 254.828 130.871 268.816 132.129 271.545C133.387 274.274 134.585 275.019 134.301 275.884C134.016 276.749 130.961 277.748 130.961 277.748C131.385 282.052 130.635 286.39 128.79 290.304C125.795 296.269 119.954 299.386 119.385 303.129C119.05 306.728 119 310.348 119.235 313.955L110.4 306.737C110.4 306.737 112.856 299.669 110.684 294.48C108.843 290.233 105.562 286.765 101.414 284.682C96.2503 281.307 92.5755 276.096 91.1412 270.113C89.8384 263.179 93.8817 255.827 99.243 250.638C104.604 245.448 115.177 246.462 116.345 246.895C117.513 247.327 113.44 243.912 117.064 243.137C120.688 242.362 122.859 247.611 123.054 248.476C123.249 249.34 124.357 244.733 125.525 247.76C126.693 250.787 124.881 254.828 124.881 254.828Z" fill="white"/>
<g style="mix-blend-mode:multiply" opacity="0.5">
<path d="M114.084 309.794C114.031 308.794 113.916 307.798 113.739 306.812C113.155 304.188 116.734 296.016 117.843 286.397C118.951 276.779 111.388 263.343 111.388 263.343L105.847 247.342C103.386 247.867 101.108 249.03 99.243 250.712C93.8817 255.902 89.8384 263.254 91.1412 270.188C92.5755 276.171 96.2503 281.382 101.414 284.757C105.562 286.84 108.843 290.307 110.684 294.554C112.856 299.744 110.4 306.812 110.4 306.812L114.084 309.794Z" fill="#92E3A9"/>
</g>
<path d="M124.881 254.828C124.881 254.828 130.871 268.816 132.129 271.545C133.387 274.274 134.585 275.019 134.301 275.884C134.016 276.749 130.961 277.748 130.961 277.748C131.385 282.052 130.635 286.39 128.79 290.304C125.795 296.269 119.954 299.386 119.385 303.129C119.05 306.728 119 310.348 119.235 313.955L110.4 306.737C110.4 306.737 112.856 299.669 110.684 294.48C108.843 290.233 105.562 286.765 101.414 284.682C96.2503 281.307 92.5755 276.096 91.1412 270.113C89.8384 263.179 93.8817 255.827 99.243 250.638C104.604 245.448 115.177 246.462 116.345 246.895C117.513 247.327 113.44 243.912 117.064 243.137C120.688 242.362 122.859 247.611 123.054 248.476C123.249 249.34 124.357 244.733 125.525 247.76C126.693 250.787 124.881 254.828 124.881 254.828Z" stroke="#263238" stroke-width="0.75" stroke-linecap="round" stroke-linejoin="round"/>
<path d="M125.45 262.269C125.45 262.269 122.829 261.553 121.961 263.76C121.688 264.266 121.534 264.827 121.51 265.4C121.487 265.974 121.595 266.545 121.826 267.071" stroke="#263238" stroke-width="0.75" stroke-linecap="round" stroke-linejoin="round"/>
<path d="M128.505 284.25C128.505 284.25 125.899 285.547 124.297 283.817" stroke="#263238" stroke-width="0.75" stroke-linecap="round" stroke-linejoin="round"/>
<path d="M123.398 272.156L111.328 277.36" stroke="#263238" stroke-width="0.75" stroke-linecap="round" stroke-linejoin="round"/>
<path d="M106.281 283.683C104.652 286.073 103.891 288.946 104.125 291.825C104.484 296.746 104.365 303.457 101.834 302.86C99.3029 302.264 103.032 294.703 103.032 291.587C102.882 289.212 102.336 286.878 101.414 284.682" stroke="#263238" stroke-width="0.75" stroke-linecap="round" stroke-linejoin="round"/>
<path d="M132.204 268.368L129.358 269.591" stroke="#263238" stroke-width="0.75" stroke-linecap="round" stroke-linejoin="round"/>
<path d="M127.546 271.172C127.921 272.439 127.921 273.558 127.546 273.662C127.172 273.767 126.573 272.827 126.199 271.559C125.824 270.292 125.839 269.174 126.199 269.054C126.558 268.935 127.187 269.889 127.546 271.172Z" fill="#263238"/>
<path d="M129.059 271.172C130.063 274.154 129.808 276.913 128.49 277.36C127.172 277.808 125.285 275.735 124.282 272.767C123.279 269.8 123.533 267.011 124.851 266.564C126.169 266.117 128.056 268.189 129.059 271.172Z" stroke="#263238" stroke-width="0.75" stroke-linecap="round" stroke-linejoin="round"/>
<path d="M109.052 282.729C109.052 282.729 106.671 279.866 108.812 280.104C109.485 280.242 110.107 280.559 110.614 281.022C111.12 281.484 111.491 282.074 111.688 282.729" stroke="#263238" stroke-width="0.5" stroke-linecap="round" stroke-linejoin="round"/>
<path d="M176.007 331.686L167.605 337.606L168.908 344.525L178.478 340.782L176.007 331.686Z" fill="white" stroke="#263238" stroke-width="0.75" stroke-linecap="round" stroke-linejoin="round"/>
<path d="M168.475 335.876L172.249 349.863C172.249 349.863 146.85 361.405 141.833 364.969C136.817 368.533 132.848 367.564 132.848 367.564L129.523 351.399C129.523 351.399 133.133 353.129 140.815 349.819C148.497 346.508 168.475 335.876 168.475 335.876Z" fill="white" stroke="#263238" stroke-width="0.75" stroke-linecap="round" stroke-linejoin="round"/>
<path d="M180.949 372.276C180.439 372.223 179.964 371.989 179.612 371.617C179.261 371.245 179.055 370.759 179.032 370.248L175.678 314.909C175.644 314.617 175.671 314.32 175.757 314.038C175.843 313.756 175.986 313.495 176.178 313.27C176.37 313.046 176.606 312.863 176.871 312.734C177.137 312.604 177.427 312.53 177.722 312.517C178.018 312.504 178.313 312.551 178.59 312.656C178.866 312.761 179.118 312.922 179.329 313.128C179.541 313.335 179.707 313.582 179.818 313.855C179.93 314.128 179.983 314.421 179.976 314.715L183.33 370.04C183.344 370.322 183.303 370.604 183.207 370.87C183.112 371.136 182.964 371.38 182.774 371.589C182.583 371.798 182.353 371.968 182.096 372.089C181.84 372.209 181.562 372.278 181.279 372.291L180.949 372.276Z" fill="#263238" stroke="#263238" stroke-width="0.75" stroke-linecap="round" stroke-linejoin="round"/>
<path d="M174.554 330.373C174.021 330.351 173.515 330.132 173.134 329.759C172.754 329.386 172.525 328.886 172.494 328.355C172.462 327.824 172.629 327.301 172.963 326.886C173.296 326.471 173.773 326.194 174.3 326.108L182.701 325.094C182.992 325.036 183.293 325.038 183.583 325.1C183.874 325.163 184.148 325.284 184.389 325.457C184.63 325.63 184.833 325.851 184.984 326.106C185.136 326.36 185.233 326.644 185.269 326.937C185.305 327.231 185.28 327.529 185.195 327.813C185.11 328.096 184.967 328.359 184.775 328.585C184.583 328.811 184.347 328.996 184.08 329.126C183.813 329.257 183.522 329.331 183.225 329.344L174.824 330.358L174.554 330.373Z" fill="white" stroke="#263238" stroke-width="0.75" stroke-linecap="round" stroke-linejoin="round"/>
<path d="M174.989 334.698C174.456 334.675 173.95 334.456 173.569 334.083C173.188 333.711 172.96 333.21 172.928 332.68C172.896 332.149 173.064 331.625 173.397 331.21C173.731 330.795 174.207 330.518 174.734 330.433L183.136 329.419C183.703 329.355 184.272 329.517 184.721 329.869C185.169 330.22 185.461 330.734 185.532 331.298C185.565 331.576 185.543 331.858 185.467 332.127C185.391 332.397 185.263 332.649 185.089 332.869C184.915 333.089 184.699 333.273 184.454 333.411C184.209 333.548 183.939 333.635 183.66 333.669L175.259 334.683L174.989 334.698Z" fill="white" stroke="#263238" stroke-width="0.75" stroke-linecap="round" stroke-linejoin="round"/>
<path d="M175.453 338.635C174.927 338.632 174.422 338.431 174.04 338.071C173.658 337.711 173.429 337.219 173.398 336.696C173.367 336.174 173.538 335.659 173.875 335.257C174.213 334.855 174.691 334.597 175.213 334.534L183.255 333.564C183.526 333.529 183.801 333.547 184.065 333.618C184.329 333.689 184.577 333.811 184.793 333.978C185.009 334.145 185.19 334.353 185.325 334.59C185.459 334.827 185.546 335.088 185.578 335.358C185.611 335.629 185.59 335.903 185.515 336.165C185.441 336.427 185.315 336.672 185.144 336.885C184.974 337.098 184.763 337.276 184.524 337.407C184.284 337.538 184.021 337.621 183.749 337.65L175.707 338.62L175.453 338.635Z" fill="white" stroke="#263238" stroke-width="0.75" stroke-linecap="round" stroke-linejoin="round"/>
<path d="M176.801 342.407C176.387 342.366 176.003 342.172 175.726 341.863C175.448 341.553 175.298 341.152 175.304 340.737C175.22 340.29 175.303 339.828 175.538 339.438C175.772 339.048 176.142 338.757 176.577 338.619L182.267 337.71C183.076 337.605 183.765 338.336 183.885 339.38C183.975 339.827 183.895 340.292 183.659 340.684C183.424 341.075 183.05 341.366 182.612 341.498L176.936 342.392L176.801 342.407Z" fill="white" stroke="#263238" stroke-width="0.75" stroke-linecap="round" stroke-linejoin="round"/>
<path d="M173.716 335.592C173.691 336 173.518 336.384 173.228 336.672C172.938 336.96 172.553 337.133 172.144 337.158C171.701 337.279 171.228 337.233 170.817 337.03C170.405 336.826 170.083 336.479 169.912 336.055L168.594 330.477C168.415 329.687 169.089 328.912 170.092 328.733C170.533 328.619 171 328.669 171.408 328.871C171.815 329.074 172.135 329.417 172.308 329.836L173.641 335.428C173.641 335.428 173.701 335.533 173.716 335.592Z" fill="white" stroke="#263238" stroke-width="0.75" stroke-linecap="round" stroke-linejoin="round"/>
<path d="M107.21 302.413C107.21 302.413 117.498 308.616 122.275 316.4C127.052 324.185 131.111 335.786 133.432 345.971C135.753 356.156 137.625 382.745 139.078 388.232C139.781 391.144 140.852 393.955 142.268 396.598C133.885 399.697 124.983 401.165 116.045 400.923C101.849 400.341 99.6772 396.881 99.6772 396.881C99.6772 396.881 94.9 365.447 95.3343 340.484C95.7686 315.521 107.21 302.413 107.21 302.413Z" fill="white"/>
<g style="mix-blend-mode:multiply" opacity="0.5">
<path d="M101.145 330.671C101.145 330.671 99.6472 333.013 100.845 326.884C101.815 322.597 103.393 318.469 105.533 314.626L112.556 322.5L116.959 322.798L115.791 324.841L124.282 330.09L120.254 325.363L120.538 318.145L113.739 320.233C113.739 320.233 109.336 312.359 108.168 309.794C107.39 308.035 109.995 306.544 111.822 305.753C110.342 304.605 108.802 303.535 107.21 302.547C107.21 302.547 95.7686 315.67 95.3343 340.618C94.9899 360.406 97.9251 384.251 99.1531 393.288L121.616 392.05L101.145 330.671Z" fill="#92E3A9"/>
</g>
<path d="M107.21 302.413C107.21 302.413 117.498 308.616 122.275 316.4C127.052 324.185 131.111 335.786 133.432 345.971C135.753 356.156 137.625 382.745 139.078 388.232C139.781 391.144 140.852 393.955 142.268 396.598C133.885 399.697 124.983 401.165 116.045 400.923C101.849 400.341 99.6772 396.881 99.6772 396.881C99.6772 396.881 94.9 365.447 95.3343 340.484C95.7686 315.521 107.21 302.413 107.21 302.413Z" stroke="#263238" stroke-width="0.75" stroke-linecap="round" stroke-linejoin="round"/>
<path d="M104.169 307.468L114.892 320.292L120.538 318.13L120.253 325.348L128.789 335.592" stroke="#263238" stroke-width="0.75" stroke-linecap="round" stroke-linejoin="round"/>
<path d="M97.5801 334.653C97.5801 334.653 98.7781 346.583 102.357 349.416" stroke="#263238" stroke-width="0.5" stroke-linecap="round" stroke-linejoin="round"/>
<path d="M98.2996 347.522C98.2996 347.522 99.7971 351.996 103.556 353.487" stroke="#263238" stroke-width="0.5" stroke-linecap="round" stroke-linejoin="round"/>
<path d="M129.388 341.08L123.173 343.466L124.132 346.091L129.867 343.943" stroke="#263238" stroke-width="0.5" stroke-linecap="round" stroke-linejoin="round"/>
<path d="M171.305 386.011C170.791 386.01 170.294 385.826 169.904 385.492C169.514 385.158 169.257 384.697 169.178 384.191L161.421 334.027C161.379 333.748 161.392 333.463 161.46 333.189C161.529 332.915 161.65 332.657 161.818 332.43C161.987 332.203 162.198 332.011 162.441 331.866C162.684 331.72 162.953 331.623 163.233 331.581C163.513 331.539 163.799 331.552 164.074 331.62C164.349 331.688 164.608 331.809 164.836 331.977C165.065 332.144 165.257 332.355 165.403 332.597C165.55 332.838 165.647 333.107 165.689 333.386L173.446 383.55C173.528 384.113 173.384 384.686 173.045 385.143C172.706 385.601 172.199 385.907 171.634 385.996L171.305 386.011Z" fill="#263238" stroke="#263238" stroke-width="0.75" stroke-linecap="round" stroke-linejoin="round"/>
<path d="M124.881 254.828C124.881 254.828 126.618 250.787 125.465 247.76C124.312 244.732 123.144 249.34 122.994 248.475C122.844 247.611 120.688 242.421 117.004 243.137C113.32 243.853 117.438 247.327 116.285 246.895C115.132 246.462 104.544 245.404 99.1832 250.638C93.8219 255.872 89.7786 263.179 91.0814 270.113C92.5157 276.096 96.1905 281.307 101.355 284.682C104.065 286.066 106.429 288.039 108.273 290.453C109.83 289.208 111.25 287.804 112.511 286.263C111.759 286.502 110.96 286.562 110.179 286.438C109.399 286.313 108.659 286.008 108.019 285.547C105.697 283.951 104.544 279.344 107.45 277.032C110.355 274.721 113.155 279.97 113.155 279.97C116.15 281.566 115.027 277.375 113.874 275.496C112.721 273.617 114.308 271.589 114.743 268.86C115.177 266.131 111.418 265.103 111.852 262.359C112.287 259.615 124.881 254.828 124.881 254.828Z" fill="#263238" stroke="#263238" stroke-width="0.75" stroke-linecap="round" stroke-linejoin="round"/>
<path d="M117.902 256.767C117.902 256.767 112.646 254.142 109.291 258.258C105.937 262.374 106.67 269.218 104.035 273.26C103.418 274.373 102.561 275.336 101.525 276.078C100.489 276.821 99.3002 277.325 98.0444 277.554" stroke="white" stroke-width="0.5" stroke-linecap="round" stroke-linejoin="round"/>
<path d="M94.9446 270.352C96.5278 270.521 98.1147 270.066 99.3657 269.085C100.617 268.104 101.433 266.675 101.639 265.103C102.837 259.138 109.531 250.578 116.24 250.34C122.949 250.101 122.455 254.813 122.455 254.813" stroke="white" stroke-width="0.5" stroke-linecap="round" stroke-linejoin="round"/>
<path d="M152.84 353.323L157.033 350.579C157.033 350.579 160.657 343.943 160.942 343.511C161.226 343.078 170.077 338.754 170.795 339.335C171.203 339.69 171.52 340.136 171.72 340.636C171.921 341.136 171.999 341.677 171.949 342.213C171.664 342.944 170.646 343.705 170.646 344.391C170.646 345.077 171.814 350.579 171.814 352.026C171.814 353.472 165.824 355.918 163.413 356.649C161.001 357.379 157.767 357.364 157.033 357.946L155.011 359.527L152.84 353.323Z" fill="white" stroke="#263238" stroke-width="0.75" stroke-linecap="round" stroke-linejoin="round"/>
<path d="M104.169 324.199C104.169 324.199 100.411 325.199 101.713 335.727C103.016 346.255 113.589 381.731 117.348 386.07C121.107 390.41 157.782 366.162 157.782 366.162L153.289 352.309C153.289 352.309 128.52 361.972 126.498 362.404C124.476 362.837 118.666 331.402 116.644 327.51" fill="white"/>
<g style="mix-blend-mode:multiply" opacity="0.5">
<path d="M157.108 364.149C149.485 366.55 131.844 372.023 129.553 371.784C126.558 371.501 125.749 369.741 123.982 367.415C122.215 365.089 119.594 374.409 117.243 375.289C114.892 376.169 116.659 364.85 117.543 362.449C118.426 360.048 115.491 363.627 115.491 363.627C115.491 363.627 109.636 351.698 106.7 343.496C104.84 338.141 103.373 332.659 102.313 327.093L101.654 328.703C101.323 331.013 101.323 333.357 101.654 335.667C102.957 346.195 113.529 381.671 117.288 386.011C121.047 390.35 157.722 366.103 157.722 366.103L157.108 364.149Z" fill="#92E3A9"/>
</g>
<path d="M104.169 324.199C104.169 324.199 100.411 325.199 101.713 335.727C103.016 346.255 113.589 381.731 117.348 386.07C121.107 390.41 157.782 366.162 157.782 366.162L153.289 352.309C153.289 352.309 128.52 361.972 126.498 362.404C124.476 362.837 118.666 331.402 116.644 327.51" stroke="#263238" stroke-width="0.75" stroke-linecap="round" stroke-linejoin="round"/>
<path d="M126.483 362.405C125.007 363.356 123.739 364.596 122.759 366.049C121.778 367.502 121.104 369.139 120.777 370.86" stroke="#263238" stroke-width="0.5" stroke-linecap="round" stroke-linejoin="round"/>
<path d="M121.017 365.611C120.011 366.611 119.217 367.802 118.682 369.113C118.147 370.425 117.882 371.83 117.902 373.246" stroke="#263238" stroke-width="0.5" stroke-linecap="round" stroke-linejoin="round"/>
<path d="M83.6833 377.332C83.6833 377.332 79.6998 364.105 80.2239 336.607C80.7481 309.109 82.3504 306.469 81.0176 304.352C79.6848 302.234 55.5593 316.386 37.5887 337.009C26.1474 350.192 11.5313 369.712 10.5729 400.461C9.77922 425.051 21.52 444.929 28.8879 450.431C41.6321 459.945 59.0336 459.289 60.8906 459.289H238.74C238.74 459.289 250.151 455.322 252.801 445.018C255.452 434.714 264.482 405.352 245.643 370.189C233.273 347.12 211.125 322.336 207.396 324.185C203.667 326.034 189.74 352.518 170.766 369.13C152.84 384.833 118.726 396.36 83.6833 377.332Z" fill="#92E3A9" stroke="#263238" stroke-width="0.75" stroke-linecap="round" stroke-linejoin="round"/>
<path d="M245.688 370.189C243.037 365.268 239.952 360.272 236.703 355.47C226.31 359.034 200.252 369.682 185.786 390.947C173.371 409.199 181.623 438.158 207.5 459.289H238.754C238.754 459.289 250.166 455.322 252.816 445.003C255.467 434.684 264.482 405.352 245.688 370.189Z" fill="white" stroke="#263238" stroke-width="0.75" stroke-linecap="round" stroke-linejoin="round"/>
<path d="M251.394 425.826C251.114 428.411 250.7 431.06 250.151 433.774" stroke="#263238" stroke-width="0.75" stroke-linecap="round" stroke-linejoin="round"/>
<path d="M242.483 374.677C242.483 374.677 253.251 393.153 251.873 420.1" stroke="#263238" stroke-width="0.75" stroke-linecap="round" stroke-linejoin="round"/>
<path d="M79.4602 455.531V429.092C65.6078 424.618 56.6675 419.309 48.3261 414.329C36.3457 407.186 27.9595 387.934 33.5902 375.468C38.7568 363.956 53.0584 358.811 60.6659 363.955C68.0903 368.814 75.7576 373.293 83.6383 377.376C83.6383 377.376 79.6549 364.149 80.179 336.651C80.7031 309.153 82.3055 306.514 80.9727 304.396C79.6399 302.279 55.5144 316.43 37.5438 337.054C26.1474 350.192 11.5313 369.712 10.5729 400.46C9.77922 425.051 21.52 444.929 28.8879 450.431C41.6321 459.945 59.0336 459.289 60.8906 459.289H79.4602C79.4602 457.932 79.4602 456.665 79.4602 455.531Z" fill="white" stroke="#263238" stroke-width="0.75" stroke-linecap="round" stroke-linejoin="round"/>
<path d="M16.2185 405.635C16.3541 408.89 16.7043 412.133 17.2668 415.343" stroke="#263238" stroke-width="0.75" stroke-linecap="round" stroke-linejoin="round"/>
<path d="M59.0334 324.319C54.7204 328.166 48.281 332.685 44.2825 337.292C32.8262 350.475 17.1769 369.309 16.1885 400.058" stroke="#263238" stroke-width="0.75" stroke-linecap="round" stroke-linejoin="round"/>
<path d="M120.852 456.112C120.852 470.652 98.3888 471.979 70.5344 471.979C42.68 471.979 20.2168 471.442 20.2168 456.112C20.2168 434.937 42.68 414.358 70.5344 414.358C98.3888 414.358 120.852 434.937 120.852 456.112Z" fill="#92E3A9" stroke="#263238" stroke-width="0.75" stroke-linecap="round" stroke-linejoin="round"/>
<path d="M70.4747 414.344C44.7617 414.344 23.5864 431.97 20.5464 451.371C23.5415 463.584 44.7617 464.046 70.4747 464.046C96.1876 464.046 117.303 462.913 120.388 451.281C117.363 431.91 96.2026 414.344 70.4747 414.344Z" fill="#263238" stroke="#263238" stroke-width="0.75" stroke-linecap="round" stroke-linejoin="round"/>
<path d="M250.945 457.663C250.945 470.831 230.548 472.039 205.389 472.039C180.23 472.039 159.819 471.562 159.819 457.663C159.819 438.501 180.215 419.831 205.389 419.831C230.563 419.831 250.945 438.501 250.945 457.663Z" fill="#92E3A9" stroke="#263238" stroke-width="0.75" stroke-linecap="round" stroke-linejoin="round"/>
<path d="M205.389 419.831C182.102 419.831 162.918 435.802 160.178 453.384C162.918 464.434 182.102 464.851 205.389 464.851C228.676 464.851 247.784 463.822 250.585 453.294C247.784 435.758 228.631 419.831 205.389 419.831Z" fill="#263238" stroke="#263238" stroke-width="0.75" stroke-linecap="round" stroke-linejoin="round"/>
<path d="M382.774 300.847C380.993 300.184 379.55 298.844 378.761 297.121C377.972 295.399 377.902 293.435 378.566 291.661L398.783 237.843C399.112 236.962 399.613 236.154 400.256 235.465C400.899 234.777 401.672 234.221 402.53 233.83C403.389 233.439 404.317 233.22 405.26 233.185C406.204 233.151 407.145 233.302 408.03 233.63C408.915 233.958 409.727 234.457 410.418 235.097C411.11 235.737 411.668 236.507 412.061 237.362C412.453 238.217 412.673 239.141 412.708 240.081C412.742 241.02 412.59 241.958 412.261 242.839L392.044 296.657C391.714 297.54 391.212 298.35 390.567 299.039C389.922 299.728 389.146 300.284 388.285 300.673C387.423 301.063 386.493 301.279 385.547 301.308C384.601 301.338 383.659 301.181 382.774 300.847V300.847Z" fill="white" stroke="#263238" stroke-width="0.75" stroke-linecap="round" stroke-linejoin="round"/>
<path d="M406.045 247.536L394.694 277.241" stroke="#263238" stroke-width="0.75" stroke-linecap="round" stroke-linejoin="round"/>
<path d="M352.014 382.864C350.446 382.282 349.008 381.397 347.782 380.261C346.557 379.126 345.568 377.761 344.873 376.244C344.178 374.728 343.789 373.09 343.73 371.424C343.67 369.758 343.941 368.097 344.526 366.535L373.384 289.693C374.576 286.539 376.977 283.985 380.059 282.594C383.141 281.202 386.652 281.087 389.82 282.274C392.987 283.46 395.552 285.851 396.949 288.92C398.346 291.99 398.462 295.486 397.27 298.64L368.352 375.408C367.171 378.548 364.789 381.095 361.728 382.492C358.666 383.889 355.174 384.023 352.014 382.864V382.864Z" fill="#263238" stroke="#263238" stroke-width="0.75" stroke-linecap="round" stroke-linejoin="round"/>
<path d="M459.134 99.8011C444.747 94.4437 429.087 93.455 414.136 96.9598C399.184 100.465 385.612 108.306 375.136 119.491C364.659 130.677 357.749 144.705 355.279 159.801C352.809 174.897 354.89 190.384 361.259 204.302C367.628 218.221 377.999 229.946 391.06 237.996C404.121 246.045 419.286 250.057 434.637 249.524C449.988 248.992 464.835 243.938 477.302 235.003C489.768 226.067 499.294 213.651 504.674 199.325C511.885 180.114 511.138 158.837 502.598 140.174C494.058 121.51 478.424 106.988 459.134 99.8011V99.8011ZM409.43 232.132C397.535 227.7 387.228 219.855 379.81 209.59C372.392 199.325 368.198 187.1 367.757 174.461C367.317 161.823 370.65 149.338 377.335 138.585C384.02 127.832 393.757 119.295 405.314 114.053C416.872 108.81 429.731 107.098 442.266 109.133C454.8 111.168 466.447 116.858 475.734 125.484C485.022 134.11 491.531 145.285 494.441 157.595C497.35 169.905 496.529 182.797 492.08 194.643C486.11 210.526 474.05 223.398 458.55 230.428C443.051 237.459 425.383 238.071 409.43 232.132V232.132Z" fill="#263238" stroke="#263238" stroke-width="0.75" stroke-linecap="round" stroke-linejoin="round"/>
<path d="M379.854 148.743C382.97 141.901 387.417 135.743 392.938 130.623C398.46 125.504 404.946 121.526 412.021 118.918" stroke="#263238" stroke-width="0.75" stroke-linecap="round" stroke-linejoin="round"/>
<path d="M374.717 172.423C374.701 166.623 375.58 160.854 377.323 155.319" stroke="#263238" stroke-width="0.75" stroke-linecap="round" stroke-linejoin="round"/>
<path d="M358.304 188.2C354.437 170.464 357.156 151.934 365.958 136.041C374.761 120.149 389.049 107.972 406.176 101.766C423.304 95.5595 442.11 95.745 459.111 102.288C476.111 108.83 490.154 121.287 498.639 137.35" stroke="white" stroke-miterlimit="10"/>
<path d="M506.756 163.297C508.951 181.167 504.621 199.226 494.557 214.182C484.492 229.137 469.364 239.99 451.931 244.762C434.499 249.534 415.924 247.906 399.597 240.175C383.27 232.444 370.278 219.126 362.991 202.65" stroke="white" stroke-miterlimit="10"/>
<path d="M501.664 143.837C503.619 148.581 505.079 153.513 506.022 158.555" stroke="white" stroke-miterlimit="10"/>
<path d="M130.377 435.877C142.311 435.877 151.986 426.243 151.986 414.359C151.986 402.474 142.311 392.84 130.377 392.84C118.442 392.84 108.767 402.474 108.767 414.359C108.767 426.243 118.442 435.877 130.377 435.877Z" fill="#263238"/>
<path d="M130.377 432.522C140.451 432.522 148.617 424.39 148.617 414.359C148.617 404.327 140.451 396.196 130.377 396.196C120.303 396.196 112.137 404.327 112.137 414.359C112.137 424.39 120.303 432.522 130.377 432.522Z" fill="white" stroke="#263238" stroke-width="0.75" stroke-linecap="round" stroke-linejoin="round"/>
<path d="M124.836 419.727C124.677 419.565 124.589 419.349 124.589 419.123C124.589 418.897 124.677 418.681 124.836 418.519L129.778 413.598C129.94 413.44 130.157 413.352 130.384 413.352C130.611 413.352 130.828 413.44 130.991 413.598C131.073 413.677 131.139 413.772 131.183 413.877C131.228 413.982 131.251 414.095 131.251 414.209C131.251 414.324 131.228 414.437 131.183 414.542C131.139 414.647 131.073 414.742 130.991 414.821L126.064 419.727C125.984 419.809 125.889 419.874 125.783 419.919C125.678 419.964 125.564 419.986 125.45 419.986C125.335 419.986 125.222 419.964 125.116 419.919C125.011 419.874 124.915 419.809 124.836 419.727V419.727Z" fill="#263238"/>
<path d="M117.318 427.213C117.171 427.074 117.054 426.906 116.974 426.72C116.894 426.534 116.852 426.334 116.852 426.132C116.852 425.93 116.894 425.729 116.974 425.543C117.054 425.358 117.171 425.19 117.318 425.051L124.357 418.042C124.497 417.893 124.666 417.774 124.854 417.693C125.042 417.612 125.245 417.57 125.45 417.57C125.655 417.57 125.858 417.612 126.046 417.693C126.234 417.774 126.403 417.893 126.543 418.042C126.691 418.181 126.808 418.349 126.888 418.535C126.968 418.721 127.009 418.921 127.009 419.123C127.009 419.325 126.968 419.525 126.888 419.711C126.808 419.897 126.691 420.065 126.543 420.204L119.505 427.213C119.365 427.362 119.195 427.481 119.007 427.562C118.819 427.643 118.617 427.685 118.412 427.685C118.207 427.685 118.004 427.643 117.816 427.562C117.628 427.481 117.458 427.362 117.318 427.213Z" fill="#263238"/>
<path d="M143.346 414.657C144.661 413.35 145.556 411.684 145.92 409.87C146.284 408.056 146.098 406.175 145.388 404.466C144.678 402.756 143.475 401.295 141.93 400.267C140.386 399.239 138.57 398.69 136.712 398.69C134.854 398.69 133.038 399.239 131.494 400.267C129.949 401.295 128.746 402.756 128.036 404.466C127.325 406.175 127.14 408.056 127.504 409.87C127.867 411.684 128.763 413.35 130.078 414.657C131.838 416.407 134.224 417.39 136.712 417.39C139.2 417.39 141.586 416.407 143.346 414.657Z" fill="#263238"/>
<path d="M141.548 412.852C142.501 411.9 143.149 410.689 143.41 409.37C143.672 408.052 143.535 406.686 143.018 405.445C142.5 404.204 141.625 403.143 140.503 402.397C139.38 401.651 138.061 401.252 136.711 401.252C135.362 401.252 134.042 401.651 132.92 402.397C131.797 403.143 130.922 404.204 130.404 405.445C129.887 406.686 129.75 408.052 130.012 409.37C130.273 410.689 130.921 411.9 131.874 412.852C132.508 413.486 133.262 413.989 134.092 414.332C134.922 414.676 135.812 414.852 136.711 414.852C137.61 414.852 138.5 414.676 139.33 414.332C140.16 413.989 140.914 413.486 141.548 412.852Z" fill="white"/>
<path d="M398.438 337.621C398.438 339.515 397.682 341.332 396.337 342.671C394.992 344.011 393.167 344.764 391.265 344.764H340.692C339.724 344.808 338.756 344.656 337.848 344.317C336.94 343.978 336.111 343.46 335.41 342.793C334.709 342.126 334.151 341.324 333.769 340.437C333.388 339.549 333.191 338.594 333.191 337.628C333.191 336.663 333.388 335.707 333.769 334.819C334.151 333.932 334.709 333.13 335.41 332.463C336.111 331.796 336.94 331.278 337.848 330.939C338.756 330.6 339.724 330.448 340.692 330.493H391.265C393.164 330.493 394.987 331.243 396.332 332.579C397.676 333.916 398.434 335.729 398.438 337.621V337.621Z" fill="#92E3A9" stroke="#263238" stroke-width="0.75" stroke-linecap="round" stroke-linejoin="round"/>
<path d="M368.173 342.556C370.373 342.556 372.156 340.78 372.156 338.59C372.156 336.399 370.373 334.623 368.173 334.623C365.973 334.623 364.189 336.399 364.189 338.59C364.189 340.78 365.973 342.556 368.173 342.556Z" fill="white" stroke="#263238" stroke-width="0.75" stroke-linecap="round" stroke-linejoin="round"/>
<path d="M307.626 385.146C312.986 385.146 317.331 380.819 317.331 375.482C317.331 370.146 312.986 365.819 307.626 365.819C302.267 365.819 297.922 370.146 297.922 375.482C297.922 380.819 302.267 385.146 307.626 385.146Z" fill="#92E3A9" stroke="#263238" stroke-width="0.75" stroke-linecap="round" stroke-linejoin="round"/>
<path d="M311.265 375.483C311.268 374.765 311.057 374.063 310.659 373.465C310.261 372.867 309.694 372.401 309.029 372.124C308.365 371.848 307.632 371.774 306.926 371.912C306.219 372.05 305.569 372.394 305.058 372.9C304.548 373.406 304.2 374.052 304.058 374.755C303.917 375.459 303.988 376.188 304.263 376.851C304.538 377.514 305.004 378.081 305.603 378.48C306.202 378.878 306.906 379.091 307.626 379.091C308.589 379.091 309.512 378.712 310.194 378.035C310.876 377.359 311.261 376.441 311.265 375.483V375.483Z" fill="white" stroke="#263238" stroke-width="0.75" stroke-linecap="round" stroke-linejoin="round"/>
<path d="M340.692 347.462C346.052 347.462 350.397 343.136 350.397 337.799C350.397 332.463 346.052 328.136 340.692 328.136C335.333 328.136 330.988 332.463 330.988 337.799C330.988 343.136 335.333 347.462 340.692 347.462Z" fill="#92E3A9" stroke="#263238" stroke-width="0.75" stroke-linecap="round" stroke-linejoin="round"/>
<path d="M340.692 341.527C342.76 341.527 344.436 339.858 344.436 337.799C344.436 335.74 342.76 334.071 340.692 334.071C338.624 334.071 336.948 335.74 336.948 337.799C336.948 339.858 338.624 341.527 340.692 341.527Z" fill="white" stroke="#263238" stroke-width="0.75" stroke-linecap="round" stroke-linejoin="round"/>
</svg>
