<svg width="772" height="1111" viewBox="0 0 772 1111" fill="none" xmlns="http://www.w3.org/2000/svg">
<path d="M366 164C368.4 78.4 159.333 23.3333 54.5 6.5H769V1073C686.167 1009 502.2 848.7 477 773.5C448.851 689.5 565.5 688 621.5 648C677.5 608 668.5 446.027 523.5 421C341 389.5 363 271 366 164Z" fill="#C8FFD4"/>
<path d="M337.132 165.89C339.722 77.3607 114.123 20.4094 1 3H772V1106C682.617 1039.81 493.193 858.774 466 781C445.676 722.873 509.636 689.629 565.791 670.49C597.112 659.814 624.246 637.016 630.038 604.437C642.971 531.701 629.513 443.683 503.85 422.895C306.918 390.317 333.895 276.552 337.132 165.89Z" stroke="#8EB792" stroke-width="5"/>
</svg>
